%FSLAX25Y25*%
%MOIN*%
G70*
G01*
G75*
G04 Layer_Color=16711935*
%ADD10R,0.03543X0.04331*%
%ADD11R,0.03900X0.05900*%
%ADD12R,0.12900X0.05900*%
%ADD13R,0.03937X0.05118*%
%ADD14R,0.03900X0.04300*%
%ADD15R,0.03150X0.03150*%
%ADD16R,0.08661X0.09843*%
%ADD17R,0.07874X0.01969*%
%ADD18O,0.02165X0.06890*%
%ADD19O,0.06890X0.02165*%
%ADD20R,0.03150X0.06299*%
%ADD21R,0.04300X0.03900*%
%ADD22R,0.05118X0.03937*%
%ADD23C,0.00800*%
%ADD24C,0.02000*%
%ADD25C,0.02500*%
%ADD26C,0.01000*%
%ADD27C,0.01200*%
%ADD28C,0.10000*%
%ADD29C,0.09055*%
%ADD30R,0.09055X0.09055*%
%ADD31O,0.17716X0.07874*%
%ADD32O,0.15748X0.07874*%
%ADD33O,0.07874X0.15748*%
%ADD34C,0.05906*%
%ADD35C,0.05906*%
%ADD36C,0.06000*%
%ADD37O,0.07000X0.13000*%
%ADD38C,0.08000*%
%ADD39R,0.07000X0.13000*%
%ADD40C,0.06200*%
%ADD41R,0.06200X0.06200*%
%ADD42R,0.05906X0.05906*%
%ADD43R,0.06000X0.06000*%
%ADD44C,0.03543*%
%ADD45R,0.10000X0.07000*%
%ADD46O,0.10000X0.07000*%
%ADD47C,0.08700*%
%ADD48C,0.15700*%
%ADD49R,0.10000X0.07000*%
%ADD50C,0.05000*%
%ADD51C,0.00984*%
%ADD52C,0.02362*%
%ADD53C,0.00787*%
%ADD54C,0.00591*%
%ADD55R,0.04343X0.05131*%
%ADD56R,0.04700X0.06700*%
%ADD57R,0.13700X0.06700*%
%ADD58R,0.04737X0.05918*%
%ADD59R,0.04700X0.05100*%
%ADD60R,0.03950X0.03950*%
%ADD61R,0.09461X0.10642*%
%ADD62R,0.08674X0.02769*%
%ADD63O,0.02965X0.07690*%
%ADD64O,0.07690X0.02965*%
%ADD65R,0.03950X0.07099*%
%ADD66R,0.05100X0.04700*%
%ADD67R,0.05918X0.04737*%
%ADD68C,0.10800*%
%ADD69C,0.09855*%
%ADD70R,0.09855X0.09855*%
%ADD71O,0.18517X0.08674*%
%ADD72O,0.16548X0.08674*%
%ADD73O,0.08674X0.16548*%
%ADD74C,0.06706*%
%ADD75C,0.06706*%
%ADD76C,0.06800*%
%ADD77O,0.07800X0.13800*%
%ADD78C,0.08800*%
%ADD79R,0.07800X0.13800*%
%ADD80C,0.07000*%
%ADD81R,0.07000X0.07000*%
%ADD82R,0.06706X0.06706*%
%ADD83R,0.06800X0.06800*%
%ADD84C,0.04343*%
%ADD85R,0.10800X0.07800*%
%ADD86O,0.10800X0.07800*%
%ADD87C,0.09500*%
%ADD88C,0.16500*%
%ADD89R,0.10800X0.07800*%
%ADD90C,0.05800*%
D68*
X225700Y654200D02*
D03*
X243400D02*
D03*
X225700Y679800D02*
D03*
X243400D02*
D03*
D69*
X407000Y656000D02*
D03*
X422000D02*
D03*
D70*
X437000D02*
D03*
D71*
X452500Y682063D02*
D03*
D72*
Y706472D02*
D03*
D73*
X432815Y694661D02*
D03*
D74*
X457421Y682063D02*
D03*
X447579D02*
D03*
D75*
X448563Y706472D02*
D03*
X456437D02*
D03*
X432815Y690724D02*
D03*
Y698598D02*
D03*
X249500Y598000D02*
D03*
Y608000D02*
D03*
Y618000D02*
D03*
X475000Y460000D02*
D03*
Y470000D02*
D03*
Y480000D02*
D03*
Y490000D02*
D03*
Y500000D02*
D03*
Y510000D02*
D03*
Y520000D02*
D03*
Y530000D02*
D03*
Y540000D02*
D03*
Y550000D02*
D03*
Y560000D02*
D03*
Y340000D02*
D03*
Y350000D02*
D03*
Y360000D02*
D03*
Y370000D02*
D03*
Y380000D02*
D03*
Y390000D02*
D03*
Y400000D02*
D03*
Y410000D02*
D03*
Y420000D02*
D03*
Y430000D02*
D03*
Y440000D02*
D03*
X215000Y340000D02*
D03*
Y350000D02*
D03*
Y360000D02*
D03*
Y370000D02*
D03*
Y380000D02*
D03*
Y390000D02*
D03*
Y400000D02*
D03*
Y410000D02*
D03*
Y420000D02*
D03*
Y430000D02*
D03*
Y440000D02*
D03*
Y460000D02*
D03*
Y470000D02*
D03*
Y480000D02*
D03*
Y490000D02*
D03*
Y500000D02*
D03*
Y510000D02*
D03*
Y520000D02*
D03*
Y530000D02*
D03*
Y540000D02*
D03*
Y550000D02*
D03*
Y560000D02*
D03*
D76*
X394500Y156000D02*
D03*
X364500Y206000D02*
D03*
X354500D02*
D03*
X344500D02*
D03*
X305500Y178500D02*
D03*
Y153500D02*
D03*
X323000Y178500D02*
D03*
Y153500D02*
D03*
X380500Y196000D02*
D03*
Y136000D02*
D03*
X328000D02*
D03*
Y196000D02*
D03*
X394500Y166000D02*
D03*
Y176000D02*
D03*
X235500Y705400D02*
D03*
X245500D02*
D03*
X255500D02*
D03*
X265500D02*
D03*
X275500D02*
D03*
X285500D02*
D03*
X295500D02*
D03*
X305500D02*
D03*
X315500D02*
D03*
X325500D02*
D03*
X335500D02*
D03*
X345500D02*
D03*
X355500D02*
D03*
X365500D02*
D03*
X375500D02*
D03*
X448000Y508500D02*
D03*
X424250Y470000D02*
D03*
X414250D02*
D03*
X301000Y279000D02*
D03*
X375000Y277000D02*
D03*
X448000Y274000D02*
D03*
X302000Y352000D02*
D03*
X376000D02*
D03*
X300000Y424000D02*
D03*
X448000Y352000D02*
D03*
X374000Y426000D02*
D03*
X448000D02*
D03*
X302000Y508500D02*
D03*
X376000Y506500D02*
D03*
X276250Y239500D02*
D03*
X266250D02*
D03*
X350250D02*
D03*
X340250D02*
D03*
X424000D02*
D03*
X414000D02*
D03*
X276250Y313000D02*
D03*
X266250D02*
D03*
X350250D02*
D03*
X340250D02*
D03*
X276250Y386500D02*
D03*
X266250D02*
D03*
X424000Y313000D02*
D03*
X414000D02*
D03*
X350250Y386500D02*
D03*
X340250D02*
D03*
X424000D02*
D03*
X414000D02*
D03*
X276250Y470000D02*
D03*
X266250D02*
D03*
X350250D02*
D03*
X340250D02*
D03*
D77*
X401000Y704000D02*
D03*
X391000D02*
D03*
D78*
X386800Y691600D02*
D03*
X409250Y510000D02*
D03*
X434250Y500000D02*
D03*
X261250Y279500D02*
D03*
X286250Y269500D02*
D03*
X335250Y279500D02*
D03*
X360250Y269500D02*
D03*
X409000Y279500D02*
D03*
X434000Y269500D02*
D03*
X261250Y353000D02*
D03*
X286250Y343000D02*
D03*
X335250Y353000D02*
D03*
X360250Y343000D02*
D03*
X261250Y426500D02*
D03*
X286250Y416500D02*
D03*
X409000Y353000D02*
D03*
X434000Y343000D02*
D03*
X335250Y426500D02*
D03*
X360250Y416500D02*
D03*
X409000Y426500D02*
D03*
X434000Y416500D02*
D03*
X261250Y510000D02*
D03*
X286250Y500000D02*
D03*
X335250Y510000D02*
D03*
X360250Y500000D02*
D03*
D79*
X411000Y704000D02*
D03*
D80*
X284500Y554500D02*
D03*
X294500D02*
D03*
X304500D02*
D03*
X284500Y564500D02*
D03*
X294500D02*
D03*
X304500D02*
D03*
X314500Y554500D02*
D03*
X324500D02*
D03*
X334500D02*
D03*
X314500Y564500D02*
D03*
X324500D02*
D03*
X334500D02*
D03*
X344500Y554500D02*
D03*
Y564500D02*
D03*
X354500Y554500D02*
D03*
Y564500D02*
D03*
X364500Y554500D02*
D03*
Y564500D02*
D03*
X374500Y554500D02*
D03*
D81*
Y564500D02*
D03*
D82*
X249500Y628000D02*
D03*
X475000Y570000D02*
D03*
Y450000D02*
D03*
X215000D02*
D03*
Y570000D02*
D03*
D83*
X225500Y705400D02*
D03*
X448000Y468500D02*
D03*
X301000Y239000D02*
D03*
X375000Y237000D02*
D03*
X448000Y234000D02*
D03*
X302000Y312000D02*
D03*
X376000D02*
D03*
X300000Y384000D02*
D03*
X448000Y312000D02*
D03*
X374000Y386000D02*
D03*
X448000D02*
D03*
X302000Y468500D02*
D03*
X376000Y466500D02*
D03*
D84*
X224500Y605610D02*
D03*
Y619390D02*
D03*
Y621161D02*
D03*
Y603839D02*
D03*
D85*
X422000Y679500D02*
D03*
D86*
X382000D02*
D03*
X473000Y616000D02*
D03*
X424000Y626000D02*
D03*
D87*
X399250Y490000D02*
D03*
X439250D02*
D03*
X251250Y259500D02*
D03*
X291250D02*
D03*
X325250D02*
D03*
X365250D02*
D03*
X399000D02*
D03*
X439000D02*
D03*
X251250Y333000D02*
D03*
X291250D02*
D03*
X325250D02*
D03*
X365250D02*
D03*
X251250Y406500D02*
D03*
X291250D02*
D03*
X399000Y333000D02*
D03*
X439000D02*
D03*
X325250Y406500D02*
D03*
X365250D02*
D03*
X399000D02*
D03*
X439000D02*
D03*
X251250Y490000D02*
D03*
X291250D02*
D03*
X325250D02*
D03*
X365250D02*
D03*
D88*
X419250D02*
D03*
X271250Y259500D02*
D03*
X345250D02*
D03*
X419000D02*
D03*
X271250Y333000D02*
D03*
X345250D02*
D03*
X271250Y406500D02*
D03*
X419000Y333000D02*
D03*
X345250Y406500D02*
D03*
X419000D02*
D03*
X271250Y490000D02*
D03*
X345250D02*
D03*
D89*
X473000Y606000D02*
D03*
X424000Y616000D02*
D03*
D90*
X414000Y445000D02*
D03*
X341000D02*
D03*
X265700D02*
D03*
X306000Y579000D02*
D03*
X301000Y642000D02*
D03*
X338000Y577000D02*
D03*
X319000Y578000D02*
D03*
X310200Y573800D02*
D03*
X380000Y596000D02*
D03*
X345236D02*
D03*
X265000Y542000D02*
D03*
X266000Y698000D02*
D03*
X270000Y678000D02*
D03*
X267000Y667000D02*
D03*
X267700Y645300D02*
D03*
X340000Y698000D02*
D03*
X277700Y696700D02*
D03*
X302000Y678000D02*
D03*
X298000Y673000D02*
D03*
X276000Y667000D02*
D03*
Y649000D02*
D03*
X394000Y466000D02*
D03*
X382000Y211000D02*
D03*
X320000Y641000D02*
D03*
X430000D02*
D03*
X378000Y687000D02*
D03*
X321000D02*
D03*
X376000Y693000D02*
D03*
X371359Y697562D02*
D03*
X321000Y696000D02*
D03*
X315000Y693000D02*
D03*
X228000Y581000D02*
D03*
X306000Y683000D02*
D03*
X310000Y688000D02*
D03*
X247000Y526000D02*
D03*
X280000D02*
D03*
X243000Y519000D02*
D03*
X289000D02*
D03*
X332000Y389000D02*
D03*
X330800Y321200D02*
D03*
X319000Y235000D02*
D03*
X315000Y270000D02*
D03*
X312000Y500000D02*
D03*
Y416500D02*
D03*
Y343000D02*
D03*
X323374Y590374D02*
D03*
X385200Y317200D02*
D03*
X402600Y576400D02*
D03*
X364600D02*
D03*
X307000Y525000D02*
D03*
X350200Y535200D02*
D03*
X274000Y673000D02*
D03*
X454000Y340000D02*
D03*
X480000Y312000D02*
D03*
X215400Y308600D02*
D03*
X297100Y365100D02*
D03*
X308000Y375200D02*
D03*
X334000Y382000D02*
D03*
X363000Y529000D02*
D03*
X357000Y524000D02*
D03*
X302000Y521000D02*
D03*
X377000Y363000D02*
D03*
X403800Y366000D02*
D03*
X404100Y228000D02*
D03*
X458000Y531000D02*
D03*
Y374000D02*
D03*
X325000Y431700D02*
D03*
X319000Y437000D02*
D03*
X243000Y459000D02*
D03*
X248000Y479000D02*
D03*
X256800Y481000D02*
D03*
X234000Y504000D02*
D03*
X231000Y515000D02*
D03*
X451150Y536150D02*
D03*
X388000Y524000D02*
D03*
X369000Y521000D02*
D03*
X380669Y531299D02*
D03*
X434000Y542000D02*
D03*
X423000Y558000D02*
D03*
X432000D02*
D03*
X464000Y582000D02*
D03*
X294000Y218000D02*
D03*
X469000D02*
D03*
X366000D02*
D03*
X374000Y636565D02*
D03*
X272000Y629000D02*
D03*
X411000Y589000D02*
D03*
X460000D02*
D03*
X457000Y606000D02*
D03*
X397000Y565000D02*
D03*
X463000Y251000D02*
D03*
X476000D02*
D03*
X335000Y674000D02*
D03*
X391000Y668000D02*
D03*
X240000Y581000D02*
D03*
X234000D02*
D03*
X228000Y690000D02*
D03*
X234000Y643000D02*
D03*
X261425Y634575D02*
D03*
X257000Y642000D02*
D03*
X234000Y686000D02*
D03*
X459000Y565000D02*
D03*
X220000Y639000D02*
D03*
X461000Y553000D02*
D03*
X295000Y618000D02*
D03*
X308000Y628000D02*
D03*
X322000Y633000D02*
D03*
X332000Y628000D02*
D03*
X255000Y569000D02*
D03*
X256000Y603000D02*
D03*
X264000Y599000D02*
D03*
X264024Y621976D02*
D03*
X261425Y606425D02*
D03*
X219000Y582000D02*
D03*
X226000Y643000D02*
D03*
X213000Y640000D02*
D03*
Y578000D02*
D03*
X226000Y500000D02*
D03*
X239000Y452000D02*
D03*
X461000Y651000D02*
D03*
Y668000D02*
D03*
X462000Y637000D02*
D03*
X386000Y648000D02*
D03*
X402000Y184000D02*
D03*
X346000Y170000D02*
D03*
M02*
