%FSLAX25Y25*%
%MOIN*%
G70*
G01*
G75*
G04 Layer_Physical_Order=1*
G04 Layer_Color=255*
%ADD10R,0.03543X0.04331*%
%ADD11R,0.03900X0.05900*%
%ADD12R,0.12900X0.05900*%
%ADD13R,0.03937X0.05118*%
%ADD14R,0.03900X0.04300*%
%ADD15R,0.03150X0.03150*%
%ADD16R,0.08661X0.09843*%
%ADD17R,0.07874X0.01969*%
%ADD18O,0.02165X0.06890*%
%ADD19O,0.06890X0.02165*%
%ADD20R,0.03150X0.06299*%
%ADD21R,0.04300X0.03900*%
%ADD22R,0.05118X0.03937*%
%ADD23C,0.00800*%
%ADD24C,0.02000*%
%ADD25C,0.02500*%
%ADD26C,0.01000*%
%ADD27C,0.01200*%
%ADD28C,0.10000*%
%ADD29C,0.09055*%
%ADD30R,0.09055X0.09055*%
%ADD31O,0.17716X0.07874*%
%ADD32O,0.15748X0.07874*%
%ADD33O,0.07874X0.15748*%
%ADD34C,0.05906*%
%ADD35C,0.05906*%
%ADD36C,0.06000*%
%ADD37O,0.07000X0.13000*%
%ADD38C,0.08000*%
%ADD39R,0.07000X0.13000*%
%ADD40C,0.06200*%
%ADD41R,0.06200X0.06200*%
%ADD42R,0.05906X0.05906*%
%ADD43R,0.06000X0.06000*%
%ADD44C,0.03543*%
%ADD45R,0.10000X0.07000*%
%ADD46O,0.10000X0.07000*%
%ADD47C,0.08700*%
%ADD48C,0.15700*%
%ADD49R,0.10000X0.07000*%
%ADD50C,0.05000*%
D10*
X443500Y548500D02*
D03*
X450980D02*
D03*
X447240Y557791D02*
D03*
X444500Y566500D02*
D03*
X451980D02*
D03*
X448240Y575791D02*
D03*
D11*
X387500Y595500D02*
D03*
X405500D02*
D03*
X396500D02*
D03*
D12*
Y620300D02*
D03*
D13*
X330850Y166000D02*
D03*
X337150D02*
D03*
X293850Y577000D02*
D03*
X300150D02*
D03*
X447350Y582500D02*
D03*
X453650D02*
D03*
X300150Y585000D02*
D03*
X293850D02*
D03*
X467850Y637000D02*
D03*
X474150D02*
D03*
X467850Y652000D02*
D03*
X474150D02*
D03*
X467850Y668000D02*
D03*
X474150D02*
D03*
X451150Y542000D02*
D03*
X444850D02*
D03*
X255350Y659000D02*
D03*
X261650D02*
D03*
X255650Y667000D02*
D03*
X249350D02*
D03*
X242650Y696000D02*
D03*
X236350D02*
D03*
X256650D02*
D03*
X250350D02*
D03*
D14*
X419800Y188000D02*
D03*
X413100D02*
D03*
X255200Y675000D02*
D03*
X261900D02*
D03*
X327300Y674000D02*
D03*
X320600D02*
D03*
X310300Y593000D02*
D03*
X303600D02*
D03*
X314300Y585000D02*
D03*
X307600D02*
D03*
D15*
X468555Y660000D02*
D03*
X474067D02*
D03*
X468555Y630000D02*
D03*
X474067D02*
D03*
X468555Y644000D02*
D03*
X474067D02*
D03*
D16*
X232374Y629035D02*
D03*
X211508D02*
D03*
X232374Y595965D02*
D03*
X211508D02*
D03*
D17*
X233358Y606201D02*
D03*
Y609350D02*
D03*
Y612500D02*
D03*
Y615650D02*
D03*
Y618799D02*
D03*
D18*
X339122Y602882D02*
D03*
X335972D02*
D03*
X332823D02*
D03*
X329673D02*
D03*
X326524D02*
D03*
X323374D02*
D03*
X320224D02*
D03*
X317075D02*
D03*
X313925D02*
D03*
X310776D02*
D03*
X307626D02*
D03*
X304476D02*
D03*
X301327D02*
D03*
X298177D02*
D03*
X295028D02*
D03*
X291878D02*
D03*
Y663118D02*
D03*
X295028D02*
D03*
X298177D02*
D03*
X301327D02*
D03*
X304476D02*
D03*
X307626D02*
D03*
X310776D02*
D03*
X313925D02*
D03*
X317075D02*
D03*
X320224D02*
D03*
X323374D02*
D03*
X326524D02*
D03*
X329673D02*
D03*
X332823D02*
D03*
X335972D02*
D03*
X339122D02*
D03*
D19*
X285382Y609378D02*
D03*
Y612528D02*
D03*
Y615677D02*
D03*
Y618827D02*
D03*
Y621976D02*
D03*
Y625126D02*
D03*
Y628276D02*
D03*
Y631425D02*
D03*
Y634575D02*
D03*
Y637724D02*
D03*
Y640874D02*
D03*
Y644024D02*
D03*
Y647173D02*
D03*
Y650323D02*
D03*
Y653472D02*
D03*
Y656622D02*
D03*
X345618D02*
D03*
Y653472D02*
D03*
Y650323D02*
D03*
Y647173D02*
D03*
Y644024D02*
D03*
Y640874D02*
D03*
Y637724D02*
D03*
Y634575D02*
D03*
Y631425D02*
D03*
Y628276D02*
D03*
Y625126D02*
D03*
Y621976D02*
D03*
Y618827D02*
D03*
Y615677D02*
D03*
Y612528D02*
D03*
Y609378D02*
D03*
D20*
X404937Y631500D02*
D03*
X397063D02*
D03*
X393063Y585500D02*
D03*
X400937D02*
D03*
D21*
X273000Y605700D02*
D03*
Y612400D02*
D03*
X274000Y654700D02*
D03*
Y661400D02*
D03*
X355000Y632300D02*
D03*
Y625600D02*
D03*
D22*
X434500Y571650D02*
D03*
Y565350D02*
D03*
X288000Y247150D02*
D03*
Y240850D02*
D03*
X360000Y245150D02*
D03*
Y238850D02*
D03*
X437000Y244150D02*
D03*
Y237850D02*
D03*
X284000Y319150D02*
D03*
Y312850D02*
D03*
X360000Y319150D02*
D03*
Y312850D02*
D03*
X284000Y393150D02*
D03*
Y386850D02*
D03*
X434000Y319150D02*
D03*
Y312850D02*
D03*
X358000Y393150D02*
D03*
Y386850D02*
D03*
X432000Y393150D02*
D03*
Y386850D02*
D03*
X284000Y477150D02*
D03*
Y470850D02*
D03*
X358000Y477150D02*
D03*
Y470850D02*
D03*
X432000Y477150D02*
D03*
Y470850D02*
D03*
X362000Y697150D02*
D03*
Y690850D02*
D03*
X420500Y181150D02*
D03*
Y174850D02*
D03*
D23*
X408000Y271146D02*
X414200Y277346D01*
X408000Y252000D02*
Y271146D01*
Y252000D02*
X414000Y246000D01*
Y239500D02*
Y246000D01*
X260500Y344896D02*
X266450Y350846D01*
X260500Y328000D02*
Y344896D01*
Y328000D02*
X266250Y322250D01*
Y313000D02*
Y322250D01*
X335000Y345396D02*
X340450Y350846D01*
X335000Y326500D02*
Y345396D01*
Y326500D02*
X340250Y321250D01*
Y313000D02*
Y321250D01*
X408500Y345146D02*
X414200Y350846D01*
X408500Y326500D02*
Y345146D01*
Y326500D02*
X414000Y321000D01*
Y313000D02*
Y321000D01*
X409000Y419146D02*
X414200Y424346D01*
X409000Y400500D02*
Y419146D01*
Y400500D02*
X414000Y395500D01*
Y386500D02*
Y395500D01*
X335000Y416633D02*
X342050Y423683D01*
X335000Y401000D02*
Y416633D01*
Y401000D02*
X340250Y395750D01*
X333100Y416996D02*
X340450Y424346D01*
X333100Y398900D02*
Y416996D01*
Y398900D02*
X336050Y395950D01*
X330050Y424346D02*
X331500Y422896D01*
Y390300D02*
Y422896D01*
Y390300D02*
X332400Y389400D01*
X320600Y402000D02*
Y403301D01*
X319700Y404201D02*
X320600Y403301D01*
X319700Y404201D02*
Y408799D01*
X320600Y402000D02*
X328100Y394500D01*
X328000Y338099D02*
Y394500D01*
X328100D01*
X328000Y338099D02*
X330800Y335299D01*
X328000Y414000D02*
Y431500D01*
X328450Y431950D01*
Y433450D01*
X330800Y435800D01*
X326050Y412050D02*
X328000Y414000D01*
X318100Y436100D02*
X319000Y437000D01*
X318100Y403538D02*
X319000Y402638D01*
X318100Y403538D02*
Y436100D01*
X319700Y408799D02*
X322951Y412050D01*
X326050D01*
X319000Y235000D02*
Y402638D01*
X336050Y384050D02*
Y395950D01*
X340250Y386500D02*
Y395750D01*
X260000Y417896D02*
X266450Y424346D01*
X260000Y401000D02*
Y417896D01*
Y401000D02*
X266250Y394750D01*
Y386500D02*
Y394750D01*
X334000Y497000D02*
X340450Y503450D01*
X334000Y435104D02*
Y497000D01*
Y435104D02*
X340450Y428654D01*
X330800Y435800D02*
Y495200D01*
X328450Y497550D02*
X330800Y495200D01*
X328450Y497550D02*
Y512817D01*
X340450Y503450D02*
Y512154D01*
X334000Y270896D02*
X340450Y277346D01*
X334000Y254000D02*
Y270896D01*
Y254000D02*
X340250Y247750D01*
Y239500D02*
Y247750D01*
X266250Y239500D02*
Y246750D01*
X260000Y253000D02*
X266250Y246750D01*
X260000Y253000D02*
Y270896D01*
X266450Y277346D01*
X420500Y174850D02*
X424259Y178609D01*
Y183615D01*
X424050Y183824D02*
X424259Y183615D01*
X424050Y183824D02*
Y193950D01*
X413253D02*
X424050D01*
X409950Y190647D02*
X413253Y193950D01*
X409950Y183950D02*
Y190647D01*
X402000Y176000D02*
X409950Y183950D01*
X394500Y176000D02*
X402000D01*
X265700Y445000D02*
Y451667D01*
Y433067D02*
Y445000D01*
X310200Y573800D02*
X314300Y577900D01*
X255350Y643650D02*
Y659000D01*
X301327Y602882D02*
Y641673D01*
X334300Y575467D02*
Y578533D01*
X332700Y574805D02*
Y602759D01*
X334300Y575467D02*
X335972Y573795D01*
X334300Y578533D02*
X335972Y580205D01*
X332700Y574805D02*
X332823Y574682D01*
X332700Y602759D02*
X332823Y602882D01*
X335972Y580205D02*
Y602882D01*
Y569109D02*
Y573795D01*
X332823Y568904D02*
Y574682D01*
X329673Y581178D02*
Y602882D01*
X321195Y572700D02*
X329673Y581178D01*
X327074Y580841D02*
Y602331D01*
X320533Y574300D02*
X327074Y580841D01*
X339122Y581110D02*
Y602882D01*
Y581110D02*
X348800Y571433D01*
X338000Y571000D02*
Y577000D01*
Y571000D02*
X344500Y564500D01*
X348800Y552719D02*
Y571433D01*
X335972Y569109D02*
X339000Y566081D01*
X319600Y578600D02*
Y602257D01*
X318000Y582903D02*
Y594000D01*
X314300Y579203D02*
X318000Y582903D01*
X314300Y577900D02*
Y579203D01*
X319000Y578000D02*
X319600Y578600D01*
X319700Y572700D02*
X321195D01*
X319000Y572000D02*
X319700Y572700D01*
X318219Y574300D02*
X320533D01*
X310200Y566281D02*
X318219Y574300D01*
X319600Y602257D02*
X320224Y602882D01*
X317075Y594925D02*
Y602882D01*
Y594925D02*
X318000Y594000D01*
X345618Y595618D02*
Y609378D01*
X401000Y685000D02*
Y704000D01*
X380000Y664000D02*
X401000Y685000D01*
X375800Y586272D02*
X378872Y583200D01*
X375800Y684800D02*
X378000Y687000D01*
X374200Y585609D02*
X378209Y581600D01*
X374200Y688433D02*
X375000Y689233D01*
X345236Y596000D02*
X345618Y595618D01*
X264000Y543000D02*
X265000Y542000D01*
X264000Y543000D02*
Y599000D01*
X266000Y698000D02*
X267000Y697000D01*
X266300Y667700D02*
Y679533D01*
Y667700D02*
X267000Y667000D01*
Y680233D02*
Y697000D01*
X266300Y679533D02*
X267000Y680233D01*
X267700Y645300D02*
X277533D01*
X279406Y647173D01*
X285382D01*
X340000Y699900D02*
X345500Y705400D01*
X340000Y698000D02*
Y699900D01*
X277700Y671467D02*
Y696700D01*
X276000Y669767D02*
X277700Y671467D01*
X276000Y667000D02*
Y669767D01*
X307626Y663118D02*
Y679393D01*
X294300Y671467D02*
X295028Y670740D01*
Y663118D02*
Y670740D01*
X277323Y650323D02*
X285382D01*
X382300Y376467D02*
X386600Y372167D01*
X369759Y585525D02*
X376884Y578400D01*
X387300Y195850D02*
Y213195D01*
X385200Y215295D02*
X387300Y213195D01*
X385200Y215295D02*
Y307200D01*
X392100Y314100D01*
X383600Y214633D02*
Y309337D01*
X382000Y211000D02*
Y310000D01*
X383600Y309337D02*
X386163Y311900D01*
X383600Y214633D02*
X385700Y212533D01*
X382000Y310000D02*
X385500Y313500D01*
X392100Y314100D02*
Y320058D01*
X388058Y324100D02*
X392100Y320058D01*
X387500Y324100D02*
X388058D01*
X386600Y325000D02*
X387500Y324100D01*
X386600Y325000D02*
Y372167D01*
X385000Y322500D02*
X387395D01*
X386733Y320900D02*
X388900Y318733D01*
X384100Y320900D02*
X386733D01*
X387395Y322500D02*
X390500Y319395D01*
X383400Y321600D02*
X384100Y320900D01*
X377000Y390697D02*
Y407388D01*
X378600Y391360D02*
Y406726D01*
X380200Y392022D02*
Y406063D01*
X373300Y392997D02*
Y420760D01*
X377500Y374479D02*
X381800Y370179D01*
X377500Y374479D02*
Y381803D01*
X378200Y382503D01*
X379100Y375142D02*
X383400Y370842D01*
X379100Y375142D02*
Y381140D01*
X379800Y381840D01*
X369800Y382503D02*
X374900Y377403D01*
X369800Y389497D02*
X373300Y392997D01*
X374900Y374816D02*
Y377403D01*
X380700Y375805D02*
X385000Y371505D01*
Y322500D02*
Y371505D01*
X380700Y375805D02*
Y380477D01*
X381400Y381177D01*
X383400Y321600D02*
Y370842D01*
X377000Y390697D02*
X378200Y389497D01*
X382300Y376467D02*
Y379815D01*
X383000Y380515D01*
X381800Y392685D02*
Y405400D01*
Y317200D02*
Y370179D01*
X383000Y380515D02*
Y391485D01*
X381800Y392685D02*
X383000Y391485D01*
X381400Y381177D02*
Y390823D01*
X380200Y392022D02*
X381400Y390823D01*
X379800Y381840D02*
Y390160D01*
X378600Y391360D02*
X379800Y390160D01*
X378200Y382503D02*
Y389497D01*
X369800Y382503D02*
Y389497D01*
X381800Y405400D02*
X385000Y408600D01*
Y409074D01*
X381800Y409926D02*
Y412179D01*
X377000Y407388D02*
X380200Y410588D01*
Y411516D01*
X378600Y406726D02*
X381800Y409926D01*
X380200Y406063D02*
X383400Y409263D01*
Y409737D01*
X385000Y409074D02*
X385690Y409764D01*
Y412815D01*
X380700Y417805D02*
X385690Y412815D01*
X383400Y409737D02*
X384090Y410427D01*
Y412152D01*
X375809Y415907D02*
Y421870D01*
X377409Y416570D02*
Y421207D01*
X379009Y417233D02*
Y420544D01*
Y417233D02*
X384090Y412152D01*
X377409Y416570D02*
X381800Y412179D01*
X375809Y415907D02*
X380200Y411516D01*
X380700Y417805D02*
Y419791D01*
X380609Y419881D02*
X380700Y419791D01*
X369800Y424260D02*
X373300Y420760D01*
X375809Y421870D02*
X378200Y424260D01*
X377409Y421207D02*
X379800Y423598D01*
X379009Y420544D02*
X381400Y422935D01*
X380609Y419881D02*
X383000Y422272D01*
Y427600D01*
X381400Y422935D02*
Y428263D01*
X379800Y423598D02*
Y428926D01*
X378200Y424260D02*
Y429588D01*
X369800Y424260D02*
Y427740D01*
X380200Y438140D01*
X370000Y430202D02*
Y477000D01*
X368200Y428402D02*
X370000Y430202D01*
X368200Y423598D02*
Y428402D01*
Y423598D02*
X370800Y420998D01*
Y404201D02*
Y420998D01*
X381400Y428263D02*
X385000Y431863D01*
X379800Y428926D02*
X383400Y432525D01*
X383000Y427600D02*
X386600Y431200D01*
X378200Y429588D02*
X381800Y433188D01*
Y470660D01*
X383400Y432525D02*
Y471322D01*
X385000Y431863D02*
Y471985D01*
X386600Y431200D02*
Y472648D01*
X380200Y438140D02*
Y469997D01*
X391400Y468600D02*
Y474636D01*
Y468600D02*
X394000Y466000D01*
X383400Y473585D02*
Y511828D01*
X381800Y472923D02*
Y511165D01*
X380200Y472260D02*
Y510502D01*
X371800Y478397D02*
X380200Y469997D01*
X371800Y478397D02*
Y508240D01*
X389800Y476236D02*
Y503412D01*
Y476236D02*
X391400Y474636D01*
X385000Y474248D02*
X386600Y472648D01*
X385000Y474248D02*
Y505400D01*
X383400Y473585D02*
X385000Y471985D01*
X381800Y472923D02*
X383400Y471322D01*
X380200Y472260D02*
X381800Y470660D01*
X385000Y505400D02*
X386600Y507000D01*
Y510891D01*
X389800Y503412D02*
X391400Y505012D01*
Y512879D01*
X368544Y568800D02*
X378097D01*
X371550Y585996D02*
X377546Y580000D01*
X366133Y580100D02*
X374233Y572000D01*
X379422D01*
X364800Y583695D02*
X374895Y573600D01*
X380085D01*
X366400Y584358D02*
X375558Y575200D01*
X380748D01*
X368000Y585021D02*
X376221Y576800D01*
X381411D01*
X376884Y578400D02*
X382073D01*
X377546Y580000D02*
X382736D01*
X378209Y581600D02*
X383399D01*
X369207Y570400D02*
X378760D01*
X365100Y580100D02*
X366133D01*
X363200Y582000D02*
X365100Y580100D01*
X345618Y653472D02*
X355104D01*
X386163Y311900D02*
X387395D01*
X390500Y315005D01*
Y319395D01*
X385500Y313500D02*
X386733D01*
X345618Y650323D02*
X355991D01*
X345618Y647173D02*
X356878D01*
X386733Y313500D02*
X388900Y315667D01*
Y318733D01*
X381800Y317200D02*
X385200D01*
X368200Y381840D02*
X370800Y379240D01*
Y330701D02*
Y379240D01*
X369800Y391760D02*
Y393000D01*
X368200Y390160D02*
X369800Y391760D01*
X368200Y381840D02*
Y390160D01*
X320000Y641000D02*
X320224Y641224D01*
Y663118D01*
X430000Y641000D02*
X430200Y640800D01*
Y612003D02*
Y640800D01*
X437000Y474412D02*
X438600Y472812D01*
Y424400D02*
Y472812D01*
Y424400D02*
X448000Y415000D01*
Y386000D02*
Y415000D01*
X454000Y340000D02*
Y381000D01*
X449000Y386000D02*
X454000Y381000D01*
X448000Y386000D02*
X449000D01*
X375000Y689233D02*
Y693000D01*
X315525Y669475D02*
Y683475D01*
X316350Y689118D02*
X318700Y691467D01*
X316350Y686855D02*
Y689118D01*
X319050Y687000D02*
X321000D01*
X315525Y683475D02*
X319050Y687000D01*
X318700Y691467D02*
Y693700D01*
X313925Y684430D02*
X316350Y686855D01*
X315525Y669475D02*
X317075Y667925D01*
Y663118D02*
Y667925D01*
X375000Y693000D02*
X376000D01*
X319137Y701300D02*
X321300Y703463D01*
X318805Y701300D02*
X319137D01*
X315805Y698300D02*
X318805Y701300D01*
X312805Y698300D02*
X315805D01*
X319800Y699700D02*
X325500Y705400D01*
X319467Y699700D02*
X319800D01*
X317300Y697533D02*
X319467Y699700D01*
X317300Y697200D02*
Y697533D01*
X316800Y696700D02*
X317300Y697200D01*
X318700Y693700D02*
X321000Y696000D01*
X313925Y663118D02*
Y684430D01*
X304400Y689895D02*
X312805Y698300D01*
X306000Y689233D02*
X313467Y696700D01*
X316800D01*
X311300Y684067D02*
X313700Y686467D01*
X311300Y663643D02*
Y684067D01*
X310776Y663118D02*
X311300Y663643D01*
X313700Y686467D02*
Y691700D01*
X315000Y693000D01*
X306000Y688233D02*
Y689233D01*
X304400Y688895D02*
Y689895D01*
X309700Y681467D02*
Y687700D01*
X307626Y679393D02*
X309700Y681467D01*
X302300Y684533D02*
X306000Y688233D01*
X302300Y682200D02*
Y684533D01*
X300400Y684895D02*
X304400Y688895D01*
X300400Y683895D02*
Y684895D01*
X296027Y679522D02*
X300400Y683895D01*
X296027Y678522D02*
Y679522D01*
X305700Y676467D02*
Y682700D01*
X304476Y675244D02*
X305700Y676467D01*
X304476Y663118D02*
Y675244D01*
X270000Y678000D02*
Y710000D01*
X309700Y687700D02*
X310000Y688000D01*
X301800Y681700D02*
X302300Y682200D01*
X305700Y682700D02*
X306000Y683000D01*
X284832Y638275D02*
X285382Y637724D01*
X256050Y493049D02*
Y512154D01*
Y493049D02*
X256800Y492299D01*
X245700Y486401D02*
X247000Y485101D01*
X245700Y486401D02*
Y492299D01*
X247000Y493599D01*
Y526000D01*
X280000D02*
Y581000D01*
X287400Y588400D01*
Y588663D01*
X291878Y593141D01*
Y602882D01*
X243000Y459000D02*
Y519000D01*
X239300Y461700D02*
Y580300D01*
X240000Y581000D01*
X289000Y588000D02*
X295028Y594028D01*
Y602882D01*
X303600Y593000D02*
X307626Y597026D01*
Y602882D01*
X330050Y424346D02*
Y428654D01*
X332400Y431004D01*
Y505496D01*
X330050Y507846D02*
X332400Y505496D01*
X330050Y512154D02*
X332000Y514104D01*
X330200Y514567D02*
Y566281D01*
X328450Y512817D02*
X330200Y514567D01*
X330050Y507846D02*
Y512154D01*
X332000Y514104D02*
Y546000D01*
X336200Y550200D01*
X336281D02*
X339000Y552919D01*
Y566081D01*
X339122Y543041D02*
X348800Y552719D01*
X339122Y513482D02*
Y543041D01*
X350200Y572618D02*
Y576281D01*
Y572618D02*
X354018Y568800D01*
X356281D01*
X358800Y552719D02*
Y566281D01*
X350200Y544119D02*
X358800Y552719D01*
X350200Y535200D02*
Y544119D01*
X353600Y571481D02*
X354681Y570400D01*
X356944D01*
X358544Y568800D02*
X366281D01*
X368800Y552719D02*
Y566281D01*
X358000Y541919D02*
X368800Y552719D01*
X356944Y570400D02*
X358544Y568800D01*
X358000Y525000D02*
Y541919D01*
X359207Y570400D02*
X366944D01*
X357607Y572000D02*
X359207Y570400D01*
X355200Y572144D02*
X355344Y572000D01*
X357607D01*
X360400Y542056D02*
X368544Y550200D01*
X366944Y570400D02*
X368544Y568800D01*
X360400Y532600D02*
Y542056D01*
X367607Y572000D02*
X369207Y570400D01*
X363081Y572000D02*
X367607D01*
X366281Y568800D02*
X368800Y566281D01*
X356281Y568800D02*
X358800Y566281D01*
X330800Y320200D02*
Y321200D01*
Y335299D01*
X330200Y566281D02*
X332823Y568904D01*
X312000Y500000D02*
Y549119D01*
Y416500D02*
Y500000D01*
Y343000D02*
Y416500D01*
X315000Y270000D02*
Y282000D01*
X312000Y285000D02*
X315000Y282000D01*
X305200Y254333D02*
Y296800D01*
X296800Y255950D02*
Y307240D01*
X312000Y285000D02*
Y343000D01*
X308300Y414967D02*
Y418533D01*
Y414967D02*
X308400Y414867D01*
Y375200D02*
Y414867D01*
Y418633D02*
Y462100D01*
X308300Y418533D02*
X308400Y418633D01*
X310200Y550919D02*
X312000Y549119D01*
X310200Y550919D02*
Y566281D01*
X326524Y602882D02*
X327074Y602331D01*
X323374Y590374D02*
Y602882D01*
X339122Y513482D02*
X340450Y512154D01*
Y430917D02*
X342050Y429317D01*
Y423683D02*
Y429317D01*
X340450Y424346D02*
Y428654D01*
X345618Y644024D02*
X357765D01*
X403800Y401501D02*
X404550Y402251D01*
Y408799D01*
X403800Y409549D02*
X404550Y408799D01*
X403800Y409549D02*
Y484501D01*
X404800Y485501D01*
Y492299D01*
X361600Y576400D02*
X364600D01*
X345618Y637724D02*
X350462D01*
X298400Y316097D02*
Y338762D01*
X297400Y402538D02*
X298400Y403538D01*
X295800Y469800D02*
X297800Y471800D01*
X306200Y480397D02*
Y510240D01*
X302000Y521000D02*
X305400Y517600D01*
X300500Y300500D02*
X301500D01*
X298400Y302600D02*
X300500Y300500D01*
X296200Y307840D02*
Y318400D01*
X296800Y319000D01*
X296200Y307840D02*
X296800Y307240D01*
X298400Y302600D02*
Y307903D01*
X297800Y308503D02*
X298400Y307903D01*
X297800Y308503D02*
Y315497D01*
X298400Y316097D01*
X295800Y387497D02*
X297400Y389097D01*
Y402538D01*
X296800Y404201D02*
Y411599D01*
X294000Y414399D02*
X296800Y411599D01*
X294000Y414399D02*
Y477000D01*
X295800Y414862D02*
X298400Y412262D01*
X295800Y414862D02*
Y469800D01*
X298400Y403538D02*
Y412262D01*
X297800Y471800D02*
Y471997D01*
X306200Y480397D01*
X306500Y468500D02*
X307800Y469800D01*
X302000Y468500D02*
X306500D01*
X307800Y469800D02*
Y510902D01*
X307000Y511702D02*
Y525000D01*
Y511702D02*
X307800Y510902D01*
X305400Y511040D02*
X306200Y510240D01*
X305400Y511040D02*
Y517600D01*
X360400Y532600D02*
X363000Y529000D01*
X448000Y468500D02*
X458000Y478500D01*
Y531000D01*
X351000Y623000D02*
Y624000D01*
X349874Y625126D02*
X351000Y624000D01*
X345618Y625126D02*
X349874D01*
X302000Y468500D02*
X308400Y462100D01*
X345618Y621976D02*
X349024D01*
X345618Y612528D02*
X350472D01*
X345618Y628276D02*
X345894Y628000D01*
X352600D01*
X355000Y625600D01*
X320600Y674000D02*
X323374Y671226D01*
Y663118D02*
Y671226D01*
X263000Y710000D02*
X270000D01*
X258400Y705400D02*
X263000Y710000D01*
X255500Y705400D02*
X258400D01*
X256650Y696000D02*
X265500Y704850D01*
Y705400D01*
X298000Y663295D02*
Y673000D01*
X301700Y663491D02*
Y677700D01*
X291878Y674373D02*
X296027Y678522D01*
X296467Y676700D02*
X296800D01*
X294300Y674533D02*
X296467Y676700D01*
X294300Y671467D02*
Y674533D01*
X291878Y663118D02*
Y674373D01*
X300467Y681700D02*
X301800D01*
X297627Y678859D02*
X300467Y681700D01*
X297627Y677527D02*
Y678859D01*
X296800Y676700D02*
X297627Y677527D01*
X301700Y677700D02*
X302000Y678000D01*
X301327Y663118D02*
X301700Y663491D01*
X298000Y663295D02*
X298177Y663118D01*
X274000Y673000D02*
Y703900D01*
X275500Y705400D01*
X233358Y615650D02*
X247150D01*
X249500Y618000D01*
X233358Y612500D02*
X245000D01*
X249500Y608000D01*
X313925Y602882D02*
X314000Y602807D01*
Y596000D02*
Y602807D01*
Y596000D02*
X314300Y595700D01*
Y585000D02*
Y595700D01*
X266250Y456983D02*
Y470000D01*
X265700Y451667D02*
X267100Y453067D01*
X266450Y424346D02*
Y432317D01*
X265700Y433067D02*
X266450Y432317D01*
X266250Y456983D02*
X267100Y456133D01*
Y453067D02*
Y456133D01*
X266250Y386500D02*
X266450Y386300D01*
Y350846D02*
Y386300D01*
X266250Y313000D02*
X266450Y312800D01*
Y277346D02*
Y312800D01*
X340250Y386500D02*
X340450Y386300D01*
X340250Y313000D02*
X340450Y312800D01*
Y277346D02*
Y312800D01*
X414200Y469950D02*
X414250Y470000D01*
X414000Y386500D02*
X414200Y386300D01*
Y350846D02*
Y386300D01*
X414000Y313000D02*
X414200Y312800D01*
Y277346D02*
Y312800D01*
X301000Y239000D02*
X302850Y240850D01*
Y251983D02*
X305200Y254333D01*
X302850Y240850D02*
Y251983D01*
X301500Y300500D02*
X305200Y296800D01*
X443800Y339300D02*
Y403451D01*
Y339300D02*
X444550Y338550D01*
X443800Y403451D02*
X444550Y404201D01*
X369200Y329101D02*
X370800Y330701D01*
X369200Y264199D02*
X370800Y262599D01*
X369200Y264199D02*
Y329101D01*
X444550Y257201D02*
Y265050D01*
X360000Y319150D02*
X369850D01*
X369800Y393000D02*
Y403201D01*
X369650Y393150D02*
X369800Y393000D01*
X358000Y393150D02*
X369650D01*
X284000D02*
X293000Y393000D01*
X296800Y319000D02*
Y338099D01*
X296650Y319150D02*
X296800Y319000D01*
X284000Y319150D02*
X296650D01*
X284000Y477150D02*
X284150Y477000D01*
X294000D01*
X288000Y247150D02*
X296800Y255950D01*
X358000Y477150D02*
X358150Y477000D01*
X370000D01*
X369800Y403201D02*
X370800Y404201D01*
Y255950D02*
Y262599D01*
X360000Y245150D02*
X370800Y255950D01*
X432000Y393150D02*
X443650D01*
X443800Y319000D02*
Y329951D01*
Y265800D02*
Y319000D01*
X443650Y319150D02*
X443800Y319000D01*
X434000Y319150D02*
X443650D01*
X432000Y477150D02*
X437000Y472150D01*
Y423054D02*
X444550Y415504D01*
Y404201D02*
Y415504D01*
X437000Y423054D02*
Y472150D01*
X444550Y330701D02*
Y338550D01*
X443800Y329951D02*
X444550Y330701D01*
X443800Y265800D02*
X444550Y265050D01*
X437000Y249651D02*
X444550Y257201D01*
X437000Y244150D02*
Y249651D01*
X243400Y661050D02*
X249350Y667000D01*
X243400Y654200D02*
Y661050D01*
Y672950D02*
Y679800D01*
Y672950D02*
X249350Y667000D01*
X267300Y654700D02*
X276300D01*
X277528Y653472D02*
X285382D01*
X276300Y654700D02*
X277528Y653472D01*
X263000Y659000D02*
X267300Y654700D01*
X261650Y659000D02*
X263000D01*
X255200Y675000D02*
X255650Y674550D01*
Y667000D02*
Y674550D01*
X255350Y666701D02*
X255650Y667000D01*
X255350Y659000D02*
Y666701D01*
X273000Y612400D02*
X285254D01*
X285382Y612528D01*
X273000Y605700D02*
X281704D01*
X285382Y609378D01*
X326524Y673224D02*
X327300Y674000D01*
X326524Y663118D02*
Y673224D01*
X331440Y705400D02*
X335500D01*
X327240Y709600D02*
X331440Y705400D01*
X323760Y709600D02*
X327240D01*
X321300Y707140D02*
X323760Y709600D01*
X321300Y703463D02*
Y707140D01*
X365500Y700650D02*
Y705400D01*
X245500D02*
X246500Y704400D01*
Y696000D02*
Y704400D01*
Y696000D02*
X250350D01*
X242650D02*
X246500D01*
X235500Y696850D02*
X236350Y696000D01*
X235500Y696850D02*
Y705400D01*
X303600Y588450D02*
X307050Y585000D01*
X307600D01*
X303600Y588450D02*
Y593000D01*
X300150Y585000D02*
X303600Y588450D01*
X293850Y585000D02*
Y588850D01*
X298177Y593177D01*
Y602882D01*
X310776Y593476D02*
Y602882D01*
X310300Y593000D02*
X310776Y593476D01*
X293850Y585000D02*
X293850Y585000D01*
Y577000D02*
Y585000D01*
X276250Y470000D02*
X277100Y470850D01*
X284000D01*
X350250Y470000D02*
X351100Y470850D01*
X358000D01*
X424250Y470000D02*
X425100Y470850D01*
X432000D01*
X424000Y313000D02*
X424150Y312850D01*
X434000D01*
X350250Y313000D02*
X350400Y312850D01*
X360000D01*
X283850Y313000D02*
X284000Y312850D01*
X276250Y313000D02*
X283850D01*
X419800Y188000D02*
X420500Y187300D01*
Y181150D02*
Y187300D01*
X424000Y239500D02*
X425650Y237850D01*
X437000D01*
X350250Y239500D02*
X350900Y238850D01*
X360000D01*
X276250Y239500D02*
X277600Y240850D01*
X288000D01*
X276250Y386500D02*
X276600Y386850D01*
X284000D01*
X357650Y386500D02*
X358000Y386850D01*
X350250Y386500D02*
X357650D01*
X431650D02*
X432000Y386850D01*
X424000Y386500D02*
X431650D01*
X442650Y549350D02*
X443500Y548500D01*
X434500Y565350D02*
X435650Y566500D01*
X447350Y582500D02*
X448240Y581610D01*
Y575791D02*
Y581610D01*
X474150Y637000D02*
X474933Y636216D01*
Y630000D02*
Y636216D01*
X474150Y660783D02*
X474933Y660000D01*
X474150Y644783D02*
X474933Y644000D01*
X474150Y644783D02*
Y652000D01*
Y660783D02*
Y668000D01*
X475000Y350000D02*
X480000Y345000D01*
Y312000D02*
Y345000D01*
X210847Y338280D02*
X215400Y333727D01*
X210847Y345847D02*
X215000Y350000D01*
X215400Y308600D02*
Y333727D01*
X210847Y338280D02*
Y345847D01*
X340450Y350846D02*
Y386300D01*
X295800Y341362D02*
Y387497D01*
Y341362D02*
X298400Y338762D01*
X334000Y382000D02*
X336050Y384050D01*
X362000Y529699D02*
X363000Y529000D01*
X357000Y524000D02*
X358000Y525000D01*
X362000Y529699D02*
X362699Y529000D01*
X363000D01*
X376000Y312000D02*
X377000Y313000D01*
X374900Y374816D02*
X377000Y372716D01*
X380200Y350260D02*
Y353740D01*
X377000Y356940D02*
Y372716D01*
Y313000D02*
Y347060D01*
X380200Y350260D01*
X377000Y356940D02*
X380200Y353740D01*
X403800Y366000D02*
Y401501D01*
X404100Y228000D02*
X404550Y227550D01*
X448000Y468500D02*
X458000Y458500D01*
Y374000D02*
Y458500D01*
X325000Y431700D02*
X328150D01*
X319000Y437000D02*
Y572000D01*
X247000Y478000D02*
Y485101D01*
Y478000D02*
X248000Y479000D01*
X256800Y481000D02*
Y492299D01*
X228000Y518000D02*
X231000Y515000D01*
X234000Y512767D02*
X234700Y513467D01*
Y580300D01*
X234000Y504000D02*
Y512767D01*
X380962Y531299D02*
X390000Y540337D01*
X376281Y550200D02*
X378800Y552719D01*
X368544Y550200D02*
X376281D01*
X374681Y548600D02*
X376944D01*
X380400Y552056D01*
X381800Y515691D02*
X386600Y510891D01*
X380200Y515028D02*
X383400Y511828D01*
X385000Y527000D02*
Y533075D01*
X391600Y539675D01*
X383485Y536085D02*
X388400Y541000D01*
X384106Y538969D02*
X386800Y541663D01*
X376969Y532832D02*
X380222Y536085D01*
X383485D01*
X375369Y533495D02*
X380843Y538969D01*
X384106D01*
X373769Y538637D02*
X385200Y550068D01*
X372169Y539299D02*
X383600Y550731D01*
X370569Y539962D02*
X382000Y551393D01*
X368969Y542887D02*
X374681Y548600D01*
X451150Y536150D02*
Y542000D01*
X437000Y474412D02*
Y484401D01*
X401250Y513314D02*
X402600Y514664D01*
X401250Y495849D02*
Y513314D01*
Y495849D02*
X404800Y492299D01*
X340450Y430917D02*
Y469800D01*
X414200Y424346D02*
Y469950D01*
X215000Y460000D02*
X216700Y461700D01*
X391400Y512879D02*
X393200Y514679D01*
X385000Y527000D02*
X388000Y524000D01*
X376969Y527536D02*
Y532832D01*
X371800Y508240D02*
X375400Y511840D01*
X377000Y513702D02*
X380200Y510502D01*
X378600Y514365D02*
X381800Y511165D01*
X375369Y526873D02*
Y533495D01*
X368969Y521031D02*
Y542887D01*
Y521031D02*
X369000Y521000D01*
X370569Y524885D02*
Y539962D01*
X372169Y525548D02*
Y539299D01*
X373769Y526211D02*
Y538637D01*
X381800Y515691D02*
Y522705D01*
X370569Y524885D02*
X375400Y520054D01*
Y511840D02*
Y520054D01*
X372169Y525548D02*
X377000Y520716D01*
Y513702D02*
Y520716D01*
X373769Y526211D02*
X378600Y521379D01*
Y514365D02*
Y521379D01*
X375369Y526873D02*
X380200Y522042D01*
Y515028D02*
Y522042D01*
X376969Y527536D02*
X381800Y522705D01*
X429050Y492351D02*
X437000Y484401D01*
X434000Y542000D02*
Y549000D01*
X430650Y552350D02*
X434000Y549000D01*
X429050Y492351D02*
Y552491D01*
X430650Y552350D02*
Y553455D01*
X428300Y555805D02*
X430650Y553455D01*
X426700Y554841D02*
X429050Y552491D01*
X428300Y572000D02*
X434150D01*
X434500Y571650D01*
X428300Y555805D02*
Y572000D01*
X453650Y582500D02*
X463500D01*
X362000Y697150D02*
X365500Y700650D01*
X435650Y566500D02*
X444500D01*
X426700Y608503D02*
X430200Y612003D01*
X426700Y554841D02*
Y608503D01*
X360000Y245150D02*
X364850D01*
X366000Y244000D01*
Y218000D02*
Y244000D01*
X224000Y696000D02*
X236350D01*
X217000Y689000D02*
X224000Y696000D01*
X217000Y646000D02*
Y689000D01*
X371550Y697370D02*
X371736Y697184D01*
X355104Y653472D02*
X367950Y640626D01*
X380000Y642585D02*
Y664000D01*
X375800Y644523D02*
Y684800D01*
X374200Y643860D02*
Y688433D01*
X371736Y644061D02*
Y697184D01*
X345618Y634575D02*
X349575D01*
X350462Y637724D02*
X351337Y638600D01*
X345618Y631425D02*
X351425D01*
X349575Y634575D02*
X352000Y637000D01*
X350200Y576281D02*
X352000Y578081D01*
Y611000D01*
X350472Y612528D02*
X352000Y611000D01*
X349024Y621976D02*
X353600Y617400D01*
Y571481D02*
Y617400D01*
X351000Y623000D02*
X355200Y618800D01*
Y572144D02*
Y618800D01*
X351425Y631425D02*
X352300Y632300D01*
X355000D01*
X351337Y638600D02*
X358663D01*
X345618Y640874D02*
X358651D01*
X355991Y650323D02*
X366350Y639963D01*
X358350Y576731D02*
X363081Y572000D01*
X352000Y637000D02*
X358000D01*
X358350Y636650D01*
Y576731D02*
Y636650D01*
X358663Y638600D02*
X359950Y637312D01*
Y631941D02*
Y637312D01*
Y631941D02*
X361600Y630291D01*
Y576400D02*
Y630291D01*
X363200Y582000D02*
Y630954D01*
X361550Y632604D02*
X363200Y630954D01*
X361550Y632604D02*
Y637975D01*
X358651Y640874D02*
X361550Y637975D01*
X364800Y583695D02*
Y631617D01*
X363150Y633266D02*
X364800Y631617D01*
X363150Y633266D02*
Y638638D01*
X357765Y644024D02*
X363150Y638638D01*
X366400Y584358D02*
Y632279D01*
X364750Y633929D02*
X366400Y632279D01*
X364750Y633929D02*
Y639301D01*
X356878Y647173D02*
X364750Y639301D01*
X368000Y585021D02*
Y632942D01*
X366350Y634592D02*
X368000Y632942D01*
X366350Y634592D02*
Y639963D01*
X369759Y585525D02*
Y633446D01*
X367950Y635254D02*
X369759Y633446D01*
X367950Y635254D02*
Y640626D01*
X380000Y642585D02*
X382500Y640085D01*
X375800Y644523D02*
X380900Y639423D01*
X374200Y643860D02*
X379300Y638760D01*
X371736Y644061D02*
X377700Y638097D01*
X371550Y585996D02*
Y628882D01*
X382500Y633044D02*
Y640085D01*
X380900Y633707D02*
Y639423D01*
X379300Y634369D02*
Y638760D01*
X377700Y635032D02*
Y638097D01*
X380000Y596000D02*
Y630544D01*
X382500Y633044D01*
X375800Y586272D02*
Y628607D01*
X380900Y633707D01*
X374200Y585609D02*
Y629269D01*
X379300Y634369D01*
X371550Y628882D02*
X377700Y635032D01*
X219826Y638275D02*
X284832D01*
X261425Y634575D02*
X285382D01*
X213000Y642000D02*
X217000Y646000D01*
X464000Y625445D02*
X468555Y630000D01*
X464000Y582000D02*
Y625445D01*
X460000Y644000D02*
X468555D01*
X460000Y589000D02*
X460700Y589700D01*
Y607533D01*
X396500Y565500D02*
X397000Y565000D01*
X378872Y583200D02*
X384062D01*
X402600Y514664D02*
Y576400D01*
X379422Y572000D02*
X382000Y569422D01*
X378760Y570400D02*
X380400Y568760D01*
X378097Y568800D02*
X378800Y568097D01*
X396500Y565500D02*
Y595500D01*
X393200Y514679D02*
Y574062D01*
X384062Y583200D02*
X393200Y574062D01*
X391600Y539675D02*
Y573399D01*
X383399Y581600D02*
X391600Y573399D01*
X390000Y540337D02*
Y572736D01*
X382736Y580000D02*
X390000Y572736D01*
X388400Y541000D02*
Y572074D01*
X382073Y578400D02*
X388400Y572074D01*
X386800Y541663D02*
Y571411D01*
X381411Y576800D02*
X386800Y571411D01*
X385200Y550068D02*
Y570748D01*
X380748Y575200D02*
X385200Y570748D01*
X383600Y550731D02*
Y570085D01*
X380085Y573600D02*
X383600Y570085D01*
X382000Y551393D02*
Y569422D01*
X380400Y552056D02*
Y568760D01*
X378800Y552719D02*
Y568097D01*
X313925Y602882D02*
Y617925D01*
X326524Y632327D02*
Y663118D01*
Y632327D02*
X327425Y631425D01*
X313925Y617925D02*
X324634Y628634D01*
X327425Y631425D01*
X285382Y653472D02*
X296000D01*
X299528D01*
X466000Y575000D02*
X473000Y582000D01*
X466000Y254000D02*
Y575000D01*
X463000Y251000D02*
X466000Y254000D01*
X473000Y582000D02*
Y606000D01*
X476000Y212000D02*
Y251000D01*
X438850Y174850D02*
X476000Y212000D01*
X420500Y174850D02*
X438850D01*
X327300Y674000D02*
X335000D01*
X391000Y637563D02*
Y668000D01*
Y637563D02*
X397063Y631500D01*
X228000Y518000D02*
Y581000D01*
X226000Y502000D02*
Y575000D01*
X219000Y582000D02*
X226000Y575000D01*
X234000Y581000D02*
X234700Y580300D01*
X232000Y649000D02*
Y682767D01*
X230300Y684467D02*
X232000Y682767D01*
X230300Y684467D02*
Y687700D01*
X228000Y690000D02*
X230300Y687700D01*
X234000Y643000D02*
Y686000D01*
X255350Y643650D02*
X257000Y642000D01*
X220000Y638449D02*
Y639000D01*
X219826Y638275D02*
X220000Y638449D01*
X453300Y582850D02*
X453650Y582500D01*
X453300Y582850D02*
Y681263D01*
X452500Y682063D02*
X453300Y681263D01*
X300150Y577000D02*
X306000D01*
X289000Y519000D02*
Y588000D01*
X451980Y566500D02*
X457500D01*
X459000Y565000D01*
X450980Y548500D02*
Y551980D01*
X451980Y552980D01*
Y566500D01*
X450980Y548500D02*
X457500D01*
X461000Y553000D02*
X462000D01*
X457500Y548500D02*
X462000Y553000D01*
X323374Y663118D02*
X323700Y662792D01*
X285382Y656622D02*
X298641D01*
X285382Y612528D02*
X289528D01*
X295000Y618000D01*
X298700Y616467D02*
Y619533D01*
X291611Y609378D02*
X298700Y616467D01*
X296000Y622233D02*
Y653472D01*
Y622233D02*
X298700Y619533D01*
X285382Y609378D02*
X291611D01*
X307626Y602882D02*
Y627626D01*
X308000Y628000D01*
X299528Y653472D02*
X318300Y634700D01*
Y631467D02*
Y634700D01*
Y631467D02*
X321133Y628634D01*
X324634D01*
X327425Y631425D02*
X327700Y631700D01*
X345343D02*
X345618Y631425D01*
X327700Y631700D02*
X345343D01*
X332000Y628000D02*
X345342D01*
X345618Y628276D01*
X321631Y633631D02*
X323700Y635700D01*
Y662792D01*
X298641Y656622D02*
X321631Y633631D01*
X281378Y656622D02*
X285382D01*
X276600Y661400D02*
X281378Y656622D01*
X274000Y661400D02*
X276600D01*
X267367D02*
X274000D01*
X261900Y666867D02*
X267367Y661400D01*
X256650Y696000D02*
X261900Y690750D01*
Y666867D02*
Y675000D01*
Y690750D01*
X256050Y512154D02*
X260300Y516404D01*
X255000Y569000D02*
X256000Y570000D01*
Y603000D01*
X260300Y516404D02*
Y600533D01*
X261425Y601658D01*
X269677Y615677D02*
X285382D01*
X264024Y621976D02*
X285382D01*
X270173Y618827D02*
X285382D01*
X249500Y598000D02*
X252300Y600800D01*
Y604533D01*
X257893Y610125D01*
X249500Y618000D02*
X253500Y614000D01*
X249500Y608000D02*
X253225Y611725D01*
X268663Y612400D02*
X273000D01*
X265663Y609400D02*
X268663Y612400D01*
X263683Y609400D02*
X265663D01*
X264346Y611000D02*
X265000D01*
X269677Y615677D01*
X262958Y610125D02*
X263683Y609400D01*
X257893Y610125D02*
X262958D01*
X261425Y601658D02*
Y606425D01*
X265347Y614000D02*
X270173Y618827D01*
X253225Y611725D02*
X263620D01*
X264346Y611000D01*
X253500Y614000D02*
X265347D01*
X226000Y643000D02*
X232000Y649000D01*
X226000Y500000D02*
Y502000D01*
X239300Y452300D02*
Y461700D01*
X239000Y452000D02*
X239300Y452300D01*
X458300Y638533D02*
X460000Y640233D01*
Y644000D01*
X456700Y606300D02*
X457000Y606000D01*
X458300Y609933D02*
Y638533D01*
Y609933D02*
X460700Y607533D01*
X463255Y654700D02*
X468555Y660000D01*
X459467Y654700D02*
X463255D01*
X456700Y651933D02*
X459467Y654700D01*
X456700Y606300D02*
Y651933D01*
X385700Y193700D02*
Y194000D01*
Y212533D01*
Y171300D02*
Y194000D01*
Y171300D02*
X391000Y166000D01*
X394500D01*
X403800Y329201D02*
X404550Y329951D01*
Y335299D01*
X403800Y336049D02*
X404550Y335299D01*
X403800Y336049D02*
Y366000D01*
X404550Y227550D02*
Y261799D01*
X403800Y262549D02*
X404550Y261799D01*
X403800Y262549D02*
Y329201D01*
X387300Y195850D02*
X399150Y184000D01*
X402000D01*
X337150Y166000D02*
X342000D01*
X346000Y170000D01*
X293000Y341899D02*
X296800Y338099D01*
X293000Y341899D02*
Y400401D01*
X296800Y404201D01*
D24*
X413100Y171100D02*
Y188000D01*
X408000Y166000D02*
X413100Y171100D01*
X404000Y166000D02*
X408000D01*
X394500Y156500D02*
X404000Y166000D01*
X387500Y585500D02*
Y595500D01*
Y585500D02*
X393063D01*
X418500Y631500D02*
X424000Y626000D01*
X404937Y631500D02*
X418500D01*
X407000Y452000D02*
X414000Y445000D01*
X407000Y452000D02*
Y504048D01*
X403450Y507598D02*
Y512402D01*
Y507598D02*
X407000Y504048D01*
X403450Y512402D02*
X407000Y515952D01*
X444850Y542000D02*
Y547150D01*
X443500Y548500D02*
X444850Y547150D01*
X420000Y558000D02*
X423000D01*
X431209Y557791D02*
X447240D01*
X431209D02*
X431417Y558000D01*
X432000D01*
X293850Y218150D02*
X294000Y218000D01*
X469000Y568000D02*
X471000Y570000D01*
X475000D01*
X469000Y218000D02*
Y244000D01*
X271000Y628000D02*
X272000Y629000D01*
X407000Y515952D02*
Y545000D01*
X420000Y558000D01*
X469000Y244000D02*
Y568000D01*
X241425Y636075D02*
X249500Y628000D01*
X223576Y636075D02*
X241425D01*
X222201Y634700D02*
X223576Y636075D01*
X213000Y639341D02*
Y642000D01*
X437000Y587000D02*
Y656000D01*
Y587000D02*
X441500Y582500D01*
X447350D01*
X418500Y631500D02*
Y652500D01*
X422000Y656000D01*
X217641Y634700D02*
X222201D01*
X213000Y639341D02*
X217641Y634700D01*
X232374Y595965D02*
X247465D01*
X249500Y598000D01*
X232374Y595965D02*
Y605217D01*
X233358Y606201D01*
X211508Y595965D02*
X232374D01*
X211508D02*
Y629035D01*
X232374D01*
X222000Y567000D02*
Y573000D01*
X217300Y577700D02*
X222000Y573000D01*
X249500Y628000D02*
X271000D01*
X211508Y629035D02*
Y632792D01*
X208000Y687900D02*
X225500Y705400D01*
X208000Y636300D02*
X211508Y632792D01*
X208000Y636300D02*
Y687900D01*
X211508Y579492D02*
Y595965D01*
X213300Y577700D02*
X217300D01*
X221700Y498219D02*
X222000Y497919D01*
Y451000D02*
Y497919D01*
X221000Y450000D02*
X222000Y451000D01*
X215000Y450000D02*
X221000D01*
X215000Y560000D02*
X221700Y566700D01*
X222000Y567000D01*
X213000Y578000D02*
X213300Y577700D01*
X211508Y579492D02*
X213000Y578000D01*
X221700Y498219D02*
Y566700D01*
X222000Y451000D02*
X225000Y448000D01*
Y197000D02*
Y448000D01*
Y197000D02*
X266000Y156000D01*
X387500Y595500D02*
Y646500D01*
X386000Y648000D02*
X387500Y646500D01*
X266000Y156000D02*
X286000D01*
X381000Y136000D02*
X394500Y149500D01*
Y156500D01*
X286000Y156000D02*
X299000Y143000D01*
X306000Y136000D01*
X299000Y143000D02*
Y147000D01*
X305500Y153500D01*
Y178500D01*
X306000Y136000D02*
X328000D01*
X380500D01*
X381000D01*
X305500Y178500D02*
X323000Y196000D01*
X328000D01*
X323000Y153500D02*
Y166000D01*
Y178500D01*
Y166000D02*
X330850D01*
X328000Y196000D02*
X354500D01*
X364500Y206000D01*
X370500D01*
X380500Y196000D01*
D25*
X396500Y620300D02*
X400800Y616000D01*
X424000D01*
X422000Y679500D02*
X449937D01*
X411000Y704000D02*
X422000Y693000D01*
Y679500D02*
Y693000D01*
X391000Y697806D02*
Y704000D01*
X392850Y685850D02*
Y695956D01*
X386500Y679500D02*
X392850Y685850D01*
X391000Y697806D02*
X392850Y695956D01*
X382000Y679500D02*
X386500D01*
X396500Y620300D02*
Y630937D01*
Y595500D02*
Y620300D01*
Y630937D02*
X397063Y631500D01*
X400937Y585500D02*
X405500Y590063D01*
Y595500D01*
Y590063D02*
X409937D01*
X411000Y589000D01*
X449937Y679500D02*
X452500Y682063D01*
D26*
X288000Y247150D02*
X293850D01*
Y218150D02*
Y247150D01*
X468850Y244150D02*
X469000Y244000D01*
X437000Y244150D02*
X468850D01*
X461000Y668000D02*
X467850D01*
X462000Y652000D02*
X467850D01*
X461000Y651000D02*
X462000Y652000D01*
Y637000D02*
X467850D01*
D27*
X233358Y618799D02*
X238799D01*
X248000Y628000D01*
X249500D01*
X362000Y649122D02*
X369936Y641186D01*
X369750Y640814D02*
X374000Y636565D01*
X362000Y649122D02*
Y690850D01*
D28*
X225700Y654200D02*
D03*
X243400D02*
D03*
X225700Y679800D02*
D03*
X243400D02*
D03*
D29*
X407000Y656000D02*
D03*
X422000D02*
D03*
D30*
X437000D02*
D03*
D31*
X452500Y682063D02*
D03*
D32*
Y706472D02*
D03*
D33*
X432815Y694661D02*
D03*
D34*
X457421Y682063D02*
D03*
X447579D02*
D03*
D35*
X448563Y706472D02*
D03*
X456437D02*
D03*
X432815Y690724D02*
D03*
Y698598D02*
D03*
X249500Y598000D02*
D03*
Y608000D02*
D03*
Y618000D02*
D03*
X475000Y460000D02*
D03*
Y470000D02*
D03*
Y480000D02*
D03*
Y490000D02*
D03*
Y500000D02*
D03*
Y510000D02*
D03*
Y520000D02*
D03*
Y530000D02*
D03*
Y540000D02*
D03*
Y550000D02*
D03*
Y560000D02*
D03*
Y340000D02*
D03*
Y350000D02*
D03*
Y360000D02*
D03*
Y370000D02*
D03*
Y380000D02*
D03*
Y390000D02*
D03*
Y400000D02*
D03*
Y410000D02*
D03*
Y420000D02*
D03*
Y430000D02*
D03*
Y440000D02*
D03*
X215000Y340000D02*
D03*
Y350000D02*
D03*
Y360000D02*
D03*
Y370000D02*
D03*
Y380000D02*
D03*
Y390000D02*
D03*
Y400000D02*
D03*
Y410000D02*
D03*
Y420000D02*
D03*
Y430000D02*
D03*
Y440000D02*
D03*
Y460000D02*
D03*
Y470000D02*
D03*
Y480000D02*
D03*
Y490000D02*
D03*
Y500000D02*
D03*
Y510000D02*
D03*
Y520000D02*
D03*
Y530000D02*
D03*
Y540000D02*
D03*
Y550000D02*
D03*
Y560000D02*
D03*
D36*
X394500Y156000D02*
D03*
X364500Y206000D02*
D03*
X354500D02*
D03*
X344500D02*
D03*
X305500Y178500D02*
D03*
Y153500D02*
D03*
X323000Y178500D02*
D03*
Y153500D02*
D03*
X380500Y196000D02*
D03*
Y136000D02*
D03*
X328000D02*
D03*
Y196000D02*
D03*
X394500Y166000D02*
D03*
Y176000D02*
D03*
X235500Y705400D02*
D03*
X245500D02*
D03*
X255500D02*
D03*
X265500D02*
D03*
X275500D02*
D03*
X285500D02*
D03*
X295500D02*
D03*
X305500D02*
D03*
X315500D02*
D03*
X325500D02*
D03*
X335500D02*
D03*
X345500D02*
D03*
X355500D02*
D03*
X365500D02*
D03*
X375500D02*
D03*
X448000Y508500D02*
D03*
X424250Y470000D02*
D03*
X414250D02*
D03*
X301000Y279000D02*
D03*
X375000Y277000D02*
D03*
X448000Y274000D02*
D03*
X302000Y352000D02*
D03*
X376000D02*
D03*
X300000Y424000D02*
D03*
X448000Y352000D02*
D03*
X374000Y426000D02*
D03*
X448000D02*
D03*
X302000Y508500D02*
D03*
X376000Y506500D02*
D03*
X276250Y239500D02*
D03*
X266250D02*
D03*
X350250D02*
D03*
X340250D02*
D03*
X424000D02*
D03*
X414000D02*
D03*
X276250Y313000D02*
D03*
X266250D02*
D03*
X350250D02*
D03*
X340250D02*
D03*
X276250Y386500D02*
D03*
X266250D02*
D03*
X424000Y313000D02*
D03*
X414000D02*
D03*
X350250Y386500D02*
D03*
X340250D02*
D03*
X424000D02*
D03*
X414000D02*
D03*
X276250Y470000D02*
D03*
X266250D02*
D03*
X350250D02*
D03*
X340250D02*
D03*
D37*
X401000Y704000D02*
D03*
X391000D02*
D03*
D38*
X386800Y691600D02*
D03*
X409250Y510000D02*
D03*
X434250Y500000D02*
D03*
X261250Y279500D02*
D03*
X286250Y269500D02*
D03*
X335250Y279500D02*
D03*
X360250Y269500D02*
D03*
X409000Y279500D02*
D03*
X434000Y269500D02*
D03*
X261250Y353000D02*
D03*
X286250Y343000D02*
D03*
X335250Y353000D02*
D03*
X360250Y343000D02*
D03*
X261250Y426500D02*
D03*
X286250Y416500D02*
D03*
X409000Y353000D02*
D03*
X434000Y343000D02*
D03*
X335250Y426500D02*
D03*
X360250Y416500D02*
D03*
X409000Y426500D02*
D03*
X434000Y416500D02*
D03*
X261250Y510000D02*
D03*
X286250Y500000D02*
D03*
X335250Y510000D02*
D03*
X360250Y500000D02*
D03*
D39*
X411000Y704000D02*
D03*
D40*
X284500Y554500D02*
D03*
X294500D02*
D03*
X304500D02*
D03*
X284500Y564500D02*
D03*
X294500D02*
D03*
X304500D02*
D03*
X314500Y554500D02*
D03*
X324500D02*
D03*
X334500D02*
D03*
X314500Y564500D02*
D03*
X324500D02*
D03*
X334500D02*
D03*
X344500Y554500D02*
D03*
Y564500D02*
D03*
X354500Y554500D02*
D03*
Y564500D02*
D03*
X364500Y554500D02*
D03*
Y564500D02*
D03*
X374500Y554500D02*
D03*
D41*
Y564500D02*
D03*
D42*
X249500Y628000D02*
D03*
X475000Y570000D02*
D03*
Y450000D02*
D03*
X215000D02*
D03*
Y570000D02*
D03*
D43*
X225500Y705400D02*
D03*
X448000Y468500D02*
D03*
X301000Y239000D02*
D03*
X375000Y237000D02*
D03*
X448000Y234000D02*
D03*
X302000Y312000D02*
D03*
X376000D02*
D03*
X300000Y384000D02*
D03*
X448000Y312000D02*
D03*
X374000Y386000D02*
D03*
X448000D02*
D03*
X302000Y468500D02*
D03*
X376000Y466500D02*
D03*
D44*
X224500Y605610D02*
D03*
Y619390D02*
D03*
Y621161D02*
D03*
Y603839D02*
D03*
D45*
X422000Y679500D02*
D03*
D46*
X382000D02*
D03*
X473000Y616000D02*
D03*
X424000Y626000D02*
D03*
D47*
X399250Y490000D02*
D03*
X439250D02*
D03*
X251250Y259500D02*
D03*
X291250D02*
D03*
X325250D02*
D03*
X365250D02*
D03*
X399000D02*
D03*
X439000D02*
D03*
X251250Y333000D02*
D03*
X291250D02*
D03*
X325250D02*
D03*
X365250D02*
D03*
X251250Y406500D02*
D03*
X291250D02*
D03*
X399000Y333000D02*
D03*
X439000D02*
D03*
X325250Y406500D02*
D03*
X365250D02*
D03*
X399000D02*
D03*
X439000D02*
D03*
X251250Y490000D02*
D03*
X291250D02*
D03*
X325250D02*
D03*
X365250D02*
D03*
D48*
X419250D02*
D03*
X271250Y259500D02*
D03*
X345250D02*
D03*
X419000D02*
D03*
X271250Y333000D02*
D03*
X345250D02*
D03*
X271250Y406500D02*
D03*
X419000Y333000D02*
D03*
X345250Y406500D02*
D03*
X419000D02*
D03*
X271250Y490000D02*
D03*
X345250D02*
D03*
D49*
X473000Y606000D02*
D03*
X424000Y616000D02*
D03*
D50*
X414000Y445000D02*
D03*
X341000D02*
D03*
X265700D02*
D03*
X306000Y579000D02*
D03*
X301000Y642000D02*
D03*
X338000Y577000D02*
D03*
X319000Y578000D02*
D03*
X310200Y573800D02*
D03*
X380000Y596000D02*
D03*
X345236D02*
D03*
X265000Y542000D02*
D03*
X266000Y698000D02*
D03*
X270000Y678000D02*
D03*
X267000Y667000D02*
D03*
X267700Y645300D02*
D03*
X340000Y698000D02*
D03*
X277700Y696700D02*
D03*
X302000Y678000D02*
D03*
X298000Y673000D02*
D03*
X276000Y667000D02*
D03*
Y649000D02*
D03*
X394000Y466000D02*
D03*
X382000Y211000D02*
D03*
X320000Y641000D02*
D03*
X430000D02*
D03*
X378000Y687000D02*
D03*
X321000D02*
D03*
X376000Y693000D02*
D03*
X371359Y697562D02*
D03*
X321000Y696000D02*
D03*
X315000Y693000D02*
D03*
X228000Y581000D02*
D03*
X306000Y683000D02*
D03*
X310000Y688000D02*
D03*
X247000Y526000D02*
D03*
X280000D02*
D03*
X243000Y519000D02*
D03*
X289000D02*
D03*
X332000Y389000D02*
D03*
X330800Y321200D02*
D03*
X319000Y235000D02*
D03*
X315000Y270000D02*
D03*
X312000Y500000D02*
D03*
Y416500D02*
D03*
Y343000D02*
D03*
X323374Y590374D02*
D03*
X385200Y317200D02*
D03*
X402600Y576400D02*
D03*
X364600D02*
D03*
X307000Y525000D02*
D03*
X350200Y535200D02*
D03*
X274000Y673000D02*
D03*
X454000Y340000D02*
D03*
X480000Y312000D02*
D03*
X215400Y308600D02*
D03*
X297100Y365100D02*
D03*
X308000Y375200D02*
D03*
X334000Y382000D02*
D03*
X363000Y529000D02*
D03*
X357000Y524000D02*
D03*
X302000Y521000D02*
D03*
X377000Y363000D02*
D03*
X403800Y366000D02*
D03*
X404100Y228000D02*
D03*
X458000Y531000D02*
D03*
Y374000D02*
D03*
X325000Y431700D02*
D03*
X319000Y437000D02*
D03*
X243000Y459000D02*
D03*
X248000Y479000D02*
D03*
X256800Y481000D02*
D03*
X234000Y504000D02*
D03*
X231000Y515000D02*
D03*
X451150Y536150D02*
D03*
X388000Y524000D02*
D03*
X369000Y521000D02*
D03*
X380669Y531299D02*
D03*
X434000Y542000D02*
D03*
X423000Y558000D02*
D03*
X432000D02*
D03*
X464000Y582000D02*
D03*
X294000Y218000D02*
D03*
X469000D02*
D03*
X366000D02*
D03*
X374000Y636565D02*
D03*
X272000Y629000D02*
D03*
X411000Y589000D02*
D03*
X460000D02*
D03*
X457000Y606000D02*
D03*
X397000Y565000D02*
D03*
X463000Y251000D02*
D03*
X476000D02*
D03*
X335000Y674000D02*
D03*
X391000Y668000D02*
D03*
X240000Y581000D02*
D03*
X234000D02*
D03*
X228000Y690000D02*
D03*
X234000Y643000D02*
D03*
X261425Y634575D02*
D03*
X257000Y642000D02*
D03*
X234000Y686000D02*
D03*
X459000Y565000D02*
D03*
X220000Y639000D02*
D03*
X461000Y553000D02*
D03*
X295000Y618000D02*
D03*
X308000Y628000D02*
D03*
X322000Y633000D02*
D03*
X332000Y628000D02*
D03*
X255000Y569000D02*
D03*
X256000Y603000D02*
D03*
X264000Y599000D02*
D03*
X264024Y621976D02*
D03*
X261425Y606425D02*
D03*
X219000Y582000D02*
D03*
X226000Y643000D02*
D03*
X213000Y640000D02*
D03*
Y578000D02*
D03*
X226000Y500000D02*
D03*
X239000Y452000D02*
D03*
X461000Y651000D02*
D03*
Y668000D02*
D03*
X462000Y637000D02*
D03*
X386000Y648000D02*
D03*
X402000Y184000D02*
D03*
X346000Y170000D02*
D03*
M02*
