M48
;Layer_Color=9474304
;FILE_FORMAT=2:5
INCH,LZ
;TYPE=PLATED
T1F00S00C0.02800
T2F00S00C0.03000
T4F00S00C0.03200
T5F00S00C0.03543
T6F00S00C0.03900
T7F00S00C0.03937
T8F00S00C0.04200
T9F00S00C0.05900
T10F00S00C0.05906
T11F00S00C0.06700
;TYPE=NON_PLATED
T12F00S00C0.03543
T13F00S00C0.08000
T14F00S00C0.15700
%
T01
X0469Y0218
X0476Y0251
X048Y0312
X0463Y0251
X04041Y0228
X0382Y0211
X0366Y0218
X0319Y0235
X0315Y027
X0346Y017
X0402Y0184
X0294Y0218
X02154Y03086
X0312Y0343
X0308Y03752
X02971Y03651
X0312Y04165
X02657Y0445
X0239Y0452
X0243Y0459
X0319Y0437
X0325Y04317
X0341Y0445
X0332Y0389
X0334Y0382
X0377Y0363
X04038Y0366
X0458Y0374
X0454Y034
X03852Y03172
X03308Y03212
X0414Y0445
X0394Y0466
X0388Y0524
X0380669Y0531299
X0363Y0529
X0357Y0524
X0369Y0521
X03502Y05352
X0338Y0577
X0319Y0578
X0323374Y0590374
X0345236Y0596
X038
X03646Y05764
X04026
X0397Y0565
X0423Y0558
X0432
X0434Y0542
X045115Y053615
X0458Y0531
X0461Y0553
X0459Y0565
X0464Y0582
X046Y0589
X0457Y0606
X0411Y0589
X0306Y0579
X03102Y05738
X0307Y0525
X0302Y0521
X0289Y0519
X028Y0526
X0265Y0542
X0247Y0526
X0243Y0519
X0231Y0515
X0234Y0504
X0226Y05
X0248Y0479
X02568Y0481
X0312Y05
X0255Y0569
X024Y0581
X0234
X0228
X0219Y0582
X0213Y0578
X0256Y0603
X0261425Y0606425
X0264Y0599
X0264024Y0621976
X0295Y0618
X0308Y0628
X0301Y0642
X0276Y0649
X02677Y06453
X0257Y0642
X0261425Y0634575
X0272Y0629
X0276Y0667
X0274Y0673
X027Y0678
X0267Y0667
X0266Y0698
X02777Y06967
X031Y0688
X0306Y0683
X0302Y0678
X0298Y0673
X0234Y0686
X0228Y069
X0226Y0643
X0234
X022Y0639
X0213Y064
X032Y0641
X0322Y0633
X0332Y0628
X0335Y0674
X0321Y0687
Y0696
X0315Y0693
X034Y0698
X0371359Y0697562
X0376Y0693
X0378Y0687
X0391Y0668
X0386Y0648
X0374Y0636565
X043Y0641
X0462Y0637
X0461Y0651
Y0668
T02
X03055Y01535
X0323
X0328Y0136
X03805
X03945Y0156
Y0166
Y0176
X03805Y0196
X03645Y0206
X03545
X03445
X0328Y0196
X0323Y01785
X03055
Y07054
X02955
X02855
X02755
X02655
X02555
X02455
X02355
X03155
X03255
X03355
X03455
X03555
X03655
X03755
T04
X0375Y0237
Y0277
X0376Y0312
X0448
Y0274
Y0234
X0301Y0239
Y0279
X0302Y0312
Y0352
X03Y0384
Y0424
X0302Y04685
X0376Y04665
X0374Y0426
Y0386
X0376Y0352
X0448
Y0386
Y0426
Y04685
Y05085
X0376Y05065
X0302Y05085
T05
X0215Y034
Y035
Y036
Y037
Y038
Y039
Y04
Y041
Y042
Y043
Y044
Y045
Y046
X0475
Y045
Y044
Y043
Y042
Y041
Y04
Y039
Y038
Y037
Y036
Y035
Y034
Y047
Y048
Y049
Y05
Y051
Y052
Y053
Y054
Y055
Y056
Y057
X02495Y0598
Y0608
Y0618
X0215Y057
Y056
Y055
Y054
Y053
Y052
Y051
Y05
Y049
Y048
Y047
X02495Y0628
T06
X034025Y02395
X035025
X0414
X0424
X027625
X026625
Y0313
X027625
Y03865
X026625
X034025
X035025
X0414
X0424
Y0313
X0414
X035025
X034025
Y047
X035025
X041425
X042425
X027625
X026625
T07
X0432815Y0690724
Y0698598
X0448563Y0706472
X0456437
X0457421Y0682063
X0447579
T08
X0473Y0606
Y0616
X0424
X03745Y05645
X03645
X03545
X03445
X03345
Y05545
X03245
X03145
Y05645
X03245
X03445Y05545
X03545
X03645
X03745
X03045
X02945
X02845
Y05645
X02945
X03045
X02434Y06542
X02257
Y06798
X02434
X0382Y06795
X0391Y0704
X0401
X0411
X0422Y06795
X0424Y0626
T09
X033525Y02795
X036025Y02695
X0409Y02795
X0434Y02695
X028625
X026125Y02795
Y0353
X028625Y0343
Y04165
X026125Y04265
X033525
X036025Y04165
X0409Y04265
X0434Y04165
Y0343
X0409Y0353
X036025Y0343
X033525Y0353
Y051
X036025Y05
X040925Y051
X043425Y05
X028625
X026125Y051
T10
X0407Y0656
X0422
X0437
T11
X032525Y02595
X036525
X0399
X0439
X029125
X025125
Y0333
X029125
Y04065
X025125
X032525
X036525
X0399
X0439
Y0333
X0399
X036525
X032525
Y049
X036525
X039925
X043925
X029125
X025125
T12
X02245Y0603839
Y060561
Y061939
Y0621161
T13
X03868Y06916
T14
X034525Y02595
X0419
X027125
Y0333
Y04065
X034525
Y0333
X0419
Y04065
X041925Y049
X034525
X027125
M30
