%FSLAX25Y25*%
%MOIN*%
G70*
G01*
G75*
G04 Layer_Physical_Order=2*
G04 Layer_Color=16711680*
%ADD10R,0.03543X0.04331*%
%ADD11R,0.03900X0.05900*%
%ADD12R,0.12900X0.05900*%
%ADD13R,0.03937X0.05118*%
%ADD14R,0.03900X0.04300*%
%ADD15R,0.03150X0.03150*%
%ADD16R,0.08661X0.09843*%
%ADD17R,0.07874X0.01969*%
%ADD18O,0.02165X0.06890*%
%ADD19O,0.06890X0.02165*%
%ADD20R,0.03150X0.06299*%
%ADD21R,0.04300X0.03900*%
%ADD22R,0.05118X0.03937*%
%ADD23C,0.00800*%
%ADD24C,0.02000*%
%ADD25C,0.02500*%
%ADD26C,0.01000*%
%ADD27C,0.01200*%
%ADD28C,0.10000*%
%ADD29C,0.09055*%
%ADD30R,0.09055X0.09055*%
%ADD31O,0.17716X0.07874*%
%ADD32O,0.15748X0.07874*%
%ADD33O,0.07874X0.15748*%
%ADD34C,0.05906*%
%ADD35C,0.05906*%
%ADD36C,0.06000*%
%ADD37O,0.07000X0.13000*%
%ADD38C,0.08000*%
%ADD39R,0.07000X0.13000*%
%ADD40C,0.06200*%
%ADD41R,0.06200X0.06200*%
%ADD42R,0.05906X0.05906*%
%ADD43R,0.06000X0.06000*%
%ADD44C,0.03543*%
%ADD45R,0.10000X0.07000*%
%ADD46O,0.10000X0.07000*%
%ADD47C,0.08700*%
%ADD48C,0.15700*%
%ADD49R,0.10000X0.07000*%
%ADD50C,0.05000*%
D23*
X269200Y348200D02*
X288404D01*
X261000Y340000D02*
X269200Y348200D01*
X215000Y340000D02*
X261000D01*
X412500Y480000D02*
X427500D01*
X411500Y481000D02*
X412500Y480000D01*
X353000Y481000D02*
X411500D01*
X427500Y480000D02*
X429100Y481600D01*
X466600D01*
X352000Y480000D02*
X353000Y481000D01*
X278000Y480000D02*
X352000D01*
X277000Y479000D02*
X278000Y480000D01*
X253233Y479000D02*
X277000D01*
X249533Y482700D02*
X253233Y479000D01*
X338700Y580700D02*
X340000Y582000D01*
X314767Y579000D02*
X317467Y581700D01*
X306000Y579000D02*
X314767D01*
X321533Y580700D02*
X338700D01*
X320533Y581700D02*
X321533Y580700D01*
X317467Y581700D02*
X320533D01*
X300000Y569000D02*
X304500Y564500D01*
X258000Y641000D02*
X273000D01*
X274000Y642000D01*
X301000D01*
X337000Y578000D02*
X338000Y577000D01*
X319000Y578000D02*
X337000D01*
X310200Y568800D02*
X328800D01*
X310200D02*
Y573800D01*
X328800Y568800D02*
X333100Y564500D01*
X334500D01*
X345236Y596000D02*
X380000D01*
X264000Y599000D02*
X265125Y600125D01*
X260324Y620444D02*
X261425Y619342D01*
Y606425D02*
Y619342D01*
X355500Y701500D02*
Y705400D01*
X353200Y699200D02*
X355500Y701500D01*
X341533Y701700D02*
X344033Y699200D01*
X335967D02*
X338467Y701700D01*
X325295Y699200D02*
X335967D01*
X344033D02*
X353200D01*
X338467Y701700D02*
X341533D01*
X323195Y701300D02*
X325295Y699200D01*
X318805Y701300D02*
X323195D01*
X315805Y698300D02*
X318805Y701300D01*
X281333Y698300D02*
X315805D01*
X273767Y698000D02*
X276167Y700400D01*
X266000Y698000D02*
X273767D01*
X279233Y700400D02*
X281333Y698300D01*
X276167Y700400D02*
X279233D01*
X267000Y667000D02*
X267700Y666300D01*
Y645300D02*
Y666300D01*
X368098Y694300D02*
X371359Y697562D01*
X338467Y694300D02*
X368098D01*
X336767Y696000D02*
X338467Y694300D01*
X321000Y696000D02*
X336767D01*
X316467Y696700D02*
X319467Y699700D01*
X277700Y696700D02*
X316467D01*
X324633Y697600D02*
X339600D01*
X322533Y699700D02*
X324633Y697600D01*
X319467Y699700D02*
X322533D01*
X276000Y649000D02*
Y667000D01*
X360250Y416500D02*
X362450Y414300D01*
X389533D01*
X391533Y416300D02*
X433800D01*
X389533Y414300D02*
X391533Y416300D01*
X389000Y466000D02*
X394000D01*
X433800Y416300D02*
X434000Y416500D01*
X321000Y687000D02*
X378000D01*
X376000Y466500D02*
X388500D01*
X389000Y466000D01*
X375000Y693000D02*
X376000D01*
X374300Y692300D02*
X375000Y693000D01*
X315000D02*
X315700Y692300D01*
X228000Y690000D02*
X230000Y688000D01*
X230767D01*
X248968Y683000D02*
X306000D01*
X245968Y686000D02*
X248968Y683000D01*
X270000Y678000D02*
X302000D01*
X219000Y582000D02*
X219276Y582276D01*
Y637724D01*
X247000Y526000D02*
X280000D01*
X243000Y519000D02*
X289000D01*
X300000Y384000D02*
X305000Y389000D01*
X332000D01*
X302000Y320000D02*
X329600D01*
X332333Y317500D02*
X332833Y318000D01*
X329267Y317500D02*
X332333D01*
X328767Y318000D02*
X329267Y317500D01*
X311000Y318000D02*
X328767D01*
X315000Y270000D02*
X433500D01*
X286250Y269500D02*
X286750Y270000D01*
X315000D01*
X312000Y500000D02*
X360250D01*
X286250D02*
X312000D01*
Y416500D02*
X360250D01*
X286250D02*
X312000D01*
Y343000D02*
X360250D01*
X286250D02*
X312000D01*
X240000Y581000D02*
X249374Y590374D01*
X323374D01*
X364600Y576400D02*
X402600D01*
X350200Y535200D02*
X443000Y535000D01*
X307000Y525000D02*
X358000D01*
X274000Y673000D02*
X298000D01*
X306200Y309000D02*
X311000Y313800D01*
X306200Y308503D02*
Y309000D01*
X297800Y308503D02*
Y308600D01*
Y308503D02*
X298503Y307800D01*
X305497D01*
X306200Y308503D01*
X311000Y313800D02*
Y318000D01*
X442000D02*
X448000Y312000D01*
X450000Y314000D01*
X302000Y312000D02*
Y320000D01*
X261250Y426500D02*
X297500D01*
X300500Y279500D02*
X301000Y279000D01*
X261250Y279500D02*
X300500D01*
X372500D02*
X375000Y277000D01*
X335250Y279500D02*
X372500D01*
X442500D02*
X448000Y274000D01*
X409000Y279500D02*
X442500D01*
X447000Y353000D02*
X448000Y352000D01*
X409000Y353000D02*
X447000D01*
X375000D02*
X376000Y352000D01*
X335250Y353000D02*
X375000D01*
X301000D02*
X302000Y352000D01*
X261250Y353000D02*
X301000D01*
X297500Y426500D02*
X300000Y424000D01*
X373500Y426500D02*
X374000Y426000D01*
X335250Y426500D02*
X373500D01*
X447500D02*
X448000Y426000D01*
X409000Y426500D02*
X447500D01*
X446500Y510000D02*
X448000Y508500D01*
X409250Y510000D02*
X446500D01*
X372500D02*
X376000Y506500D01*
X335250Y510000D02*
X372500D01*
X300500D02*
X302000Y508500D01*
X261250Y510000D02*
X300500D01*
X360250Y343000D02*
X434000D01*
X358096Y348200D02*
X362404D01*
X431846D02*
X436154D01*
X313533Y346700D02*
X314033Y346200D01*
X310467Y346700D02*
X313533D01*
X429846Y346200D02*
X431846Y348200D01*
X364404Y346200D02*
X429846D01*
X362404Y348200D02*
X364404Y346200D01*
X356096D02*
X358096Y348200D01*
X314033Y346200D02*
X356096D01*
X436154Y348200D02*
X444354Y340000D01*
X309967Y346200D02*
X310467Y346700D01*
X290404Y346200D02*
X309967D01*
X288404Y348200D02*
X290404Y346200D01*
X444354Y340000D02*
X454000D01*
X475000D01*
X448000Y312000D02*
X480000D01*
X215400Y308600D02*
X297800D01*
X332833Y318000D02*
X442000D01*
X215000Y380000D02*
X223400Y371600D01*
X215000Y360000D02*
X215200Y359800D01*
X474800D02*
X475000Y360000D01*
X286967Y370000D02*
X295567Y361400D01*
X215000Y370000D02*
X286967D01*
X223400Y371600D02*
X287630D01*
X294130Y365100D01*
X297100D01*
X215000Y390000D02*
X231400Y373600D01*
X215000Y400000D02*
X239800Y375200D01*
X469000Y404000D02*
X475000Y410000D01*
X219153Y398110D02*
X240463Y376800D01*
X219153Y398110D02*
Y404153D01*
X215000Y408306D02*
X219153Y404153D01*
X215000Y408306D02*
Y410000D01*
Y420000D02*
X221000Y414000D01*
Y398526D02*
Y414000D01*
X331042Y375200D02*
X331142Y375100D01*
X330379Y373600D02*
X330479Y373500D01*
X329716Y372000D02*
X329816Y371900D01*
X330479Y373500D02*
X458500D01*
X475000Y390000D01*
X331142Y375100D02*
X450100D01*
X469000Y396263D02*
Y404000D01*
X467000Y396526D02*
Y412000D01*
X475000Y420000D01*
X239800Y375200D02*
X308000D01*
X331042D01*
X240463Y376800D02*
X304367D01*
X306467Y378900D01*
X231400Y373600D02*
X304367D01*
X306467Y371500D01*
X309533D01*
X311633Y373600D01*
X330379D01*
X310195Y369900D02*
X312295Y372000D01*
X329716D01*
X303958Y361400D02*
X312558Y370000D01*
X297100Y364100D02*
X302900Y369900D01*
X310195D01*
X295567Y361400D02*
X303958D01*
X306467Y378900D02*
X329605D01*
X331805Y376700D02*
X449437D01*
X334000Y382000D02*
X355137D01*
X356337Y383200D01*
X371200D01*
X374000Y386000D01*
X257396Y430000D02*
X259096Y431700D01*
X473300D02*
X475000Y430000D01*
X215000D02*
X257396D01*
X215000Y460000D02*
X223400Y451600D01*
X466600D01*
X475000Y460000D01*
Y468000D02*
Y470000D01*
X460200Y453200D02*
X475000Y468000D01*
X215000Y470000D02*
X231800Y453200D01*
X466600Y481600D02*
X475000Y490000D01*
X215000D02*
X224050Y480950D01*
X215000Y500000D02*
X278896D01*
X284096Y505200D01*
X431950D02*
X436404D01*
X441604Y500000D01*
X475000D01*
X429050Y502300D02*
X431950Y505200D01*
X284096D02*
X288404D01*
X431287Y506800D02*
X437067D01*
X428387Y503900D02*
X431287Y506800D01*
X280633Y504000D02*
X283433Y506800D01*
X333096Y504800D02*
X337404D01*
X300260Y504300D02*
X303740D01*
X379340Y503900D02*
X428387D01*
X377740Y502300D02*
X379340Y503900D01*
X374260Y502300D02*
X377740D01*
X373598Y500700D02*
X378402D01*
X380002Y502300D01*
X429050D01*
X360250Y500000D02*
X372035D01*
X372935Y499100D01*
X379065D01*
X379965Y500000D01*
X434250D01*
X469300Y504300D02*
X475000Y510000D01*
X439567Y504300D02*
X469300D01*
X437067Y506800D02*
X439567Y504300D01*
X369760Y506800D02*
X374260Y502300D01*
X339404Y506800D02*
X369760D01*
X337404Y504800D02*
X339404Y506800D01*
X297760D02*
X300260Y504300D01*
X283433Y506800D02*
X297760D01*
X304402Y502700D02*
X305402Y503700D01*
X331933D01*
X332433Y503200D01*
X290904Y502700D02*
X304402D01*
X332433Y503200D02*
X356096D01*
X358096Y505200D01*
X369098D01*
X373598Y500700D01*
X332596Y505300D02*
X333096Y504800D01*
X304740Y505300D02*
X332596D01*
X303740Y504300D02*
X304740Y505300D01*
X288404Y505200D02*
X290904Y502700D01*
X221000Y504000D02*
X280633D01*
X215000Y510000D02*
X221000Y504000D01*
X467263Y540000D02*
X475000D01*
X362000Y529699D02*
X363000Y529000D01*
X215000Y540000D02*
X223500Y531500D01*
X215000Y550000D02*
X229800Y535200D01*
X350200D01*
X215000Y530000D02*
X215100Y529900D01*
X357000Y524000D02*
X358000Y525000D01*
X362699Y529000D02*
X363000D01*
X362000Y529699D02*
X362699Y529000D01*
X361467Y525300D02*
X364533D01*
X356867Y529900D02*
X361467Y525300D01*
X215100Y529900D02*
X356867D01*
X368300Y520300D02*
X369000Y521000D01*
X302000D02*
X302700Y520300D01*
X368300D01*
X301533Y515300D02*
X304933Y518700D01*
X219700Y515300D02*
X301533D01*
X215000Y520000D02*
X219700Y515300D01*
X215200Y359800D02*
X377000D01*
X474800D01*
X377000D02*
Y363000D01*
X403800Y366000D02*
Y369800D01*
X404100Y228000D02*
X442000D01*
X448000Y234000D01*
X312558Y370000D02*
X404000D01*
X403800Y369800D02*
X404000Y370000D01*
X456000Y529000D02*
X458000Y531000D01*
X443000Y535000D02*
X454505D01*
X455805Y536300D01*
X461300D02*
X475000Y550000D01*
X455805Y536300D02*
X461300D01*
X461963Y534700D02*
X467263Y540000D01*
X456467Y534700D02*
X461963D01*
X449437Y376700D02*
X469000Y396263D01*
X450100Y375100D02*
X475000Y400000D01*
X466900Y371900D02*
X475000Y380000D01*
X329816Y371900D02*
X454867D01*
X456467Y370300D01*
X459533D01*
X461133Y371900D01*
X466900D01*
X404000Y370000D02*
X454505D01*
X455805Y368700D01*
X460195D01*
X461495Y370000D01*
X475000D01*
X334000Y381087D02*
Y382000D01*
X330709Y377796D02*
X331805Y376700D01*
X329605Y378900D02*
X330709Y377796D01*
X334000Y381087D01*
X221000Y398526D02*
X238526Y381000D01*
X297000D01*
X300000Y384000D01*
X332000Y389000D02*
X336000D01*
X341210Y394210D01*
X464685D01*
X467000Y396526D01*
X329600Y320000D02*
X330800Y321200D01*
X259096Y431700D02*
X325000D01*
X473300D01*
X372800Y234800D02*
X375000Y237000D01*
X215000Y440000D02*
X318000D01*
X475000D01*
X318000Y438000D02*
Y440000D01*
Y438000D02*
X319000Y437000D01*
Y234800D02*
X372800D01*
X243000Y453200D02*
X460200D01*
X243000D02*
Y459000D01*
X224050Y480950D02*
X244717D01*
X246467Y482700D01*
X249533D01*
X217700Y477300D02*
X472300D01*
X215000Y480000D02*
X217700Y477300D01*
X472300D02*
X475000Y480000D01*
X386000Y529000D02*
X456000D01*
X380669Y531299D02*
Y532730D01*
X449617Y532450D02*
X454217D01*
X456467Y534700D01*
X364533Y525300D02*
X365833Y524000D01*
X469000D02*
X475000Y530000D01*
X365833Y524000D02*
X366767D01*
X367467Y524700D01*
X370533D01*
X371233Y524000D01*
X370533Y517300D02*
X373233Y520000D01*
X475000D01*
X371233Y524000D02*
X469000D01*
X304933Y518700D02*
X366067D01*
X367467Y517300D01*
X370533D01*
X384000Y527000D02*
X386000Y529000D01*
X363000D02*
X376000D01*
X378000Y527000D01*
X384000D01*
X448667Y531500D02*
X449617Y532450D01*
X223500Y531500D02*
X360267D01*
X361467Y532700D01*
X364533D01*
X365733Y531500D01*
X448667D01*
X265000Y542000D02*
X434000D01*
X340000Y582000D02*
X464000D01*
X234000Y686000D02*
X245968D01*
X320000Y641000D02*
X430000D01*
X256000Y603000D02*
X257000Y604000D01*
X422000Y606000D02*
Y614000D01*
X424000Y616000D01*
X422000Y606000D02*
X457000D01*
X473000D01*
X374500Y564500D02*
X397000Y565000D01*
X463000Y251000D02*
X476000D01*
X335000Y674000D02*
X385000D01*
X391000Y668000D01*
X234000Y581000D02*
Y643000D01*
X230767Y688000D02*
X232467Y689700D01*
X235533D01*
X237233Y688000D01*
X310000D01*
X219276Y637724D02*
X220000Y638449D01*
Y639000D01*
X374500Y554500D02*
X376000Y553000D01*
X447000D01*
X459000Y565000D01*
X284500Y554500D02*
X374500D01*
X315700Y692300D02*
X374300D01*
X228000Y581000D02*
Y639000D01*
X226000Y641000D02*
Y643000D01*
Y641000D02*
X228000Y639000D01*
X461000Y553000D02*
X468000D01*
X475000Y560000D01*
X295000Y618000D02*
X298000D01*
X308000Y628000D01*
X319000D01*
X322000Y633000D02*
X324000D01*
X327000Y628000D02*
X332000D01*
X323000Y632000D02*
X327000Y628000D01*
X322000Y633000D02*
X323000Y632000D01*
X255000Y569000D02*
X300000D01*
X257000Y604000D02*
Y642000D01*
X265125Y600125D02*
Y607958D01*
X264024Y609059D02*
X265125Y607958D01*
X264024Y609059D02*
Y621976D01*
X260324Y620444D02*
Y623509D01*
X261425Y624611D01*
Y634575D01*
X242500Y554500D02*
X284500D01*
X219000Y578000D02*
X242500Y554500D01*
X213000Y578000D02*
X219000D01*
X237467Y455700D02*
X240533D01*
X215000Y450000D02*
X235767D01*
X237467Y448300D01*
X240533D01*
X242233Y450000D01*
X475000D01*
X231800Y453200D02*
X234967D01*
X237467Y455700D01*
X243000Y453200D02*
Y453233D01*
X240533Y455700D02*
X243000Y453233D01*
X332000Y628000D02*
X334000Y626000D01*
X424000D01*
X319000Y628000D02*
X323000Y632000D01*
X324000Y633000D01*
X359500Y211000D02*
X382000D01*
X354500Y206000D02*
X359500Y211000D01*
X374500Y176000D02*
X394500D01*
X344500Y206000D02*
X374500Y176000D01*
X400000Y182000D02*
X402000Y184000D01*
X400000Y173000D02*
Y182000D01*
X397200Y170200D02*
X400000Y173000D01*
X392760Y170200D02*
X397200D01*
X392560Y170000D02*
X392760Y170200D01*
X346000Y170000D02*
X392560D01*
D24*
X341000Y445000D02*
X414000D01*
X265700D02*
X341000D01*
X423000Y558000D02*
X423209Y557791D01*
X431791D02*
X432000Y558000D01*
X423209Y557791D02*
X431791D01*
X294000Y218000D02*
X469000D01*
X475000Y570000D02*
Y583000D01*
X469000Y589000D02*
X475000Y583000D01*
X470000Y570000D02*
X475000D01*
X223000D02*
X246000Y547000D01*
X215000Y570000D02*
X223000D01*
X411000Y589000D02*
X460000D01*
X469000D01*
X463300Y563219D02*
Y563300D01*
X470000Y570000D01*
X447081Y547000D02*
X463300Y563219D01*
X246000Y547000D02*
X447081D01*
X221000Y700900D02*
X225500Y705400D01*
X221000Y684500D02*
Y700900D01*
Y684500D02*
X225700Y679800D01*
Y654200D02*
Y679800D01*
X208700Y576219D02*
X211219Y573700D01*
X208700Y576219D02*
Y635700D01*
X211219Y573700D02*
X211300D01*
X215000Y570000D01*
X208700Y635700D02*
X213000Y640000D01*
X386000Y648000D02*
X414000D01*
X422000Y656000D01*
D25*
X407000D02*
Y666000D01*
X393500Y679500D02*
X407000Y666000D01*
X382000Y679500D02*
X393500D01*
X422000Y656000D02*
X432815Y666815D01*
Y690724D02*
Y694661D01*
X444626Y706472D02*
X448563D01*
X452500D01*
X432815Y694661D02*
X444626Y706472D01*
X432815Y666815D02*
Y669000D01*
Y690724D01*
Y669000D02*
X460000D01*
X461000Y668000D01*
D26*
X375500Y705400D02*
X381500Y699400D01*
Y689405D02*
Y699400D01*
Y689405D02*
X384605Y686300D01*
X411300D02*
X419661Y694661D01*
X432815D01*
X384605Y686300D02*
X411300D01*
X463000Y626000D02*
X473000Y616000D01*
X463000Y626000D02*
Y636000D01*
X462000Y637000D02*
X463000Y636000D01*
X462000Y637000D02*
Y650000D01*
X461000Y651000D02*
Y668000D01*
D27*
X373665Y636900D02*
X374000Y636565D01*
X279900Y636900D02*
X373665D01*
X272000Y629000D02*
X279900Y636900D01*
D28*
X225700Y654200D02*
D03*
X243400D02*
D03*
X225700Y679800D02*
D03*
X243400D02*
D03*
D29*
X407000Y656000D02*
D03*
X422000D02*
D03*
D30*
X437000D02*
D03*
D31*
X452500Y682063D02*
D03*
D32*
Y706472D02*
D03*
D33*
X432815Y694661D02*
D03*
D34*
X457421Y682063D02*
D03*
X447579D02*
D03*
D35*
X448563Y706472D02*
D03*
X456437D02*
D03*
X432815Y690724D02*
D03*
Y698598D02*
D03*
X249500Y598000D02*
D03*
Y608000D02*
D03*
Y618000D02*
D03*
X475000Y460000D02*
D03*
Y470000D02*
D03*
Y480000D02*
D03*
Y490000D02*
D03*
Y500000D02*
D03*
Y510000D02*
D03*
Y520000D02*
D03*
Y530000D02*
D03*
Y540000D02*
D03*
Y550000D02*
D03*
Y560000D02*
D03*
Y340000D02*
D03*
Y350000D02*
D03*
Y360000D02*
D03*
Y370000D02*
D03*
Y380000D02*
D03*
Y390000D02*
D03*
Y400000D02*
D03*
Y410000D02*
D03*
Y420000D02*
D03*
Y430000D02*
D03*
Y440000D02*
D03*
X215000Y340000D02*
D03*
Y350000D02*
D03*
Y360000D02*
D03*
Y370000D02*
D03*
Y380000D02*
D03*
Y390000D02*
D03*
Y400000D02*
D03*
Y410000D02*
D03*
Y420000D02*
D03*
Y430000D02*
D03*
Y440000D02*
D03*
Y460000D02*
D03*
Y470000D02*
D03*
Y480000D02*
D03*
Y490000D02*
D03*
Y500000D02*
D03*
Y510000D02*
D03*
Y520000D02*
D03*
Y530000D02*
D03*
Y540000D02*
D03*
Y550000D02*
D03*
Y560000D02*
D03*
D36*
X394500Y156000D02*
D03*
X364500Y206000D02*
D03*
X354500D02*
D03*
X344500D02*
D03*
X305500Y178500D02*
D03*
Y153500D02*
D03*
X323000Y178500D02*
D03*
Y153500D02*
D03*
X380500Y196000D02*
D03*
Y136000D02*
D03*
X328000D02*
D03*
Y196000D02*
D03*
X394500Y166000D02*
D03*
Y176000D02*
D03*
X235500Y705400D02*
D03*
X245500D02*
D03*
X255500D02*
D03*
X265500D02*
D03*
X275500D02*
D03*
X285500D02*
D03*
X295500D02*
D03*
X305500D02*
D03*
X315500D02*
D03*
X325500D02*
D03*
X335500D02*
D03*
X345500D02*
D03*
X355500D02*
D03*
X365500D02*
D03*
X375500D02*
D03*
X448000Y508500D02*
D03*
X424250Y470000D02*
D03*
X414250D02*
D03*
X301000Y279000D02*
D03*
X375000Y277000D02*
D03*
X448000Y274000D02*
D03*
X302000Y352000D02*
D03*
X376000D02*
D03*
X300000Y424000D02*
D03*
X448000Y352000D02*
D03*
X374000Y426000D02*
D03*
X448000D02*
D03*
X302000Y508500D02*
D03*
X376000Y506500D02*
D03*
X276250Y239500D02*
D03*
X266250D02*
D03*
X350250D02*
D03*
X340250D02*
D03*
X424000D02*
D03*
X414000D02*
D03*
X276250Y313000D02*
D03*
X266250D02*
D03*
X350250D02*
D03*
X340250D02*
D03*
X276250Y386500D02*
D03*
X266250D02*
D03*
X424000Y313000D02*
D03*
X414000D02*
D03*
X350250Y386500D02*
D03*
X340250D02*
D03*
X424000D02*
D03*
X414000D02*
D03*
X276250Y470000D02*
D03*
X266250D02*
D03*
X350250D02*
D03*
X340250D02*
D03*
D37*
X401000Y704000D02*
D03*
X391000D02*
D03*
D38*
X386800Y691600D02*
D03*
X409250Y510000D02*
D03*
X434250Y500000D02*
D03*
X261250Y279500D02*
D03*
X286250Y269500D02*
D03*
X335250Y279500D02*
D03*
X360250Y269500D02*
D03*
X409000Y279500D02*
D03*
X434000Y269500D02*
D03*
X261250Y353000D02*
D03*
X286250Y343000D02*
D03*
X335250Y353000D02*
D03*
X360250Y343000D02*
D03*
X261250Y426500D02*
D03*
X286250Y416500D02*
D03*
X409000Y353000D02*
D03*
X434000Y343000D02*
D03*
X335250Y426500D02*
D03*
X360250Y416500D02*
D03*
X409000Y426500D02*
D03*
X434000Y416500D02*
D03*
X261250Y510000D02*
D03*
X286250Y500000D02*
D03*
X335250Y510000D02*
D03*
X360250Y500000D02*
D03*
D39*
X411000Y704000D02*
D03*
D40*
X284500Y554500D02*
D03*
X294500D02*
D03*
X304500D02*
D03*
X284500Y564500D02*
D03*
X294500D02*
D03*
X304500D02*
D03*
X314500Y554500D02*
D03*
X324500D02*
D03*
X334500D02*
D03*
X314500Y564500D02*
D03*
X324500D02*
D03*
X334500D02*
D03*
X344500Y554500D02*
D03*
Y564500D02*
D03*
X354500Y554500D02*
D03*
Y564500D02*
D03*
X364500Y554500D02*
D03*
Y564500D02*
D03*
X374500Y554500D02*
D03*
D41*
Y564500D02*
D03*
D42*
X249500Y628000D02*
D03*
X475000Y570000D02*
D03*
Y450000D02*
D03*
X215000D02*
D03*
Y570000D02*
D03*
D43*
X225500Y705400D02*
D03*
X448000Y468500D02*
D03*
X301000Y239000D02*
D03*
X375000Y237000D02*
D03*
X448000Y234000D02*
D03*
X302000Y312000D02*
D03*
X376000D02*
D03*
X300000Y384000D02*
D03*
X448000Y312000D02*
D03*
X374000Y386000D02*
D03*
X448000D02*
D03*
X302000Y468500D02*
D03*
X376000Y466500D02*
D03*
D44*
X224500Y605610D02*
D03*
Y619390D02*
D03*
Y621161D02*
D03*
Y603839D02*
D03*
D45*
X422000Y679500D02*
D03*
D46*
X382000D02*
D03*
X473000Y616000D02*
D03*
X424000Y626000D02*
D03*
D47*
X399250Y490000D02*
D03*
X439250D02*
D03*
X251250Y259500D02*
D03*
X291250D02*
D03*
X325250D02*
D03*
X365250D02*
D03*
X399000D02*
D03*
X439000D02*
D03*
X251250Y333000D02*
D03*
X291250D02*
D03*
X325250D02*
D03*
X365250D02*
D03*
X251250Y406500D02*
D03*
X291250D02*
D03*
X399000Y333000D02*
D03*
X439000D02*
D03*
X325250Y406500D02*
D03*
X365250D02*
D03*
X399000D02*
D03*
X439000D02*
D03*
X251250Y490000D02*
D03*
X291250D02*
D03*
X325250D02*
D03*
X365250D02*
D03*
D48*
X419250D02*
D03*
X271250Y259500D02*
D03*
X345250D02*
D03*
X419000D02*
D03*
X271250Y333000D02*
D03*
X345250D02*
D03*
X271250Y406500D02*
D03*
X419000Y333000D02*
D03*
X345250Y406500D02*
D03*
X419000D02*
D03*
X271250Y490000D02*
D03*
X345250D02*
D03*
D49*
X473000Y606000D02*
D03*
X424000Y616000D02*
D03*
D50*
X414000Y445000D02*
D03*
X341000D02*
D03*
X265700D02*
D03*
X306000Y579000D02*
D03*
X301000Y642000D02*
D03*
X338000Y577000D02*
D03*
X319000Y578000D02*
D03*
X310200Y573800D02*
D03*
X380000Y596000D02*
D03*
X345236D02*
D03*
X265000Y542000D02*
D03*
X266000Y698000D02*
D03*
X270000Y678000D02*
D03*
X267000Y667000D02*
D03*
X267700Y645300D02*
D03*
X340000Y698000D02*
D03*
X277700Y696700D02*
D03*
X302000Y678000D02*
D03*
X298000Y673000D02*
D03*
X276000Y667000D02*
D03*
Y649000D02*
D03*
X394000Y466000D02*
D03*
X382000Y211000D02*
D03*
X320000Y641000D02*
D03*
X430000D02*
D03*
X378000Y687000D02*
D03*
X321000D02*
D03*
X376000Y693000D02*
D03*
X371359Y697562D02*
D03*
X321000Y696000D02*
D03*
X315000Y693000D02*
D03*
X228000Y581000D02*
D03*
X306000Y683000D02*
D03*
X310000Y688000D02*
D03*
X247000Y526000D02*
D03*
X280000D02*
D03*
X243000Y519000D02*
D03*
X289000D02*
D03*
X332000Y389000D02*
D03*
X330800Y321200D02*
D03*
X319000Y235000D02*
D03*
X315000Y270000D02*
D03*
X312000Y500000D02*
D03*
Y416500D02*
D03*
Y343000D02*
D03*
X323374Y590374D02*
D03*
X385200Y317200D02*
D03*
X402600Y576400D02*
D03*
X364600D02*
D03*
X307000Y525000D02*
D03*
X350200Y535200D02*
D03*
X274000Y673000D02*
D03*
X454000Y340000D02*
D03*
X480000Y312000D02*
D03*
X215400Y308600D02*
D03*
X297100Y365100D02*
D03*
X308000Y375200D02*
D03*
X334000Y382000D02*
D03*
X363000Y529000D02*
D03*
X357000Y524000D02*
D03*
X302000Y521000D02*
D03*
X377000Y363000D02*
D03*
X403800Y366000D02*
D03*
X404100Y228000D02*
D03*
X458000Y531000D02*
D03*
Y374000D02*
D03*
X325000Y431700D02*
D03*
X319000Y437000D02*
D03*
X243000Y459000D02*
D03*
X248000Y479000D02*
D03*
X256800Y481000D02*
D03*
X234000Y504000D02*
D03*
X231000Y515000D02*
D03*
X451150Y536150D02*
D03*
X388000Y524000D02*
D03*
X369000Y521000D02*
D03*
X380669Y531299D02*
D03*
X434000Y542000D02*
D03*
X423000Y558000D02*
D03*
X432000D02*
D03*
X464000Y582000D02*
D03*
X294000Y218000D02*
D03*
X469000D02*
D03*
X366000D02*
D03*
X374000Y636565D02*
D03*
X272000Y629000D02*
D03*
X411000Y589000D02*
D03*
X460000D02*
D03*
X457000Y606000D02*
D03*
X397000Y565000D02*
D03*
X463000Y251000D02*
D03*
X476000D02*
D03*
X335000Y674000D02*
D03*
X391000Y668000D02*
D03*
X240000Y581000D02*
D03*
X234000D02*
D03*
X228000Y690000D02*
D03*
X234000Y643000D02*
D03*
X261425Y634575D02*
D03*
X257000Y642000D02*
D03*
X234000Y686000D02*
D03*
X459000Y565000D02*
D03*
X220000Y639000D02*
D03*
X461000Y553000D02*
D03*
X295000Y618000D02*
D03*
X308000Y628000D02*
D03*
X322000Y633000D02*
D03*
X332000Y628000D02*
D03*
X255000Y569000D02*
D03*
X256000Y603000D02*
D03*
X264000Y599000D02*
D03*
X264024Y621976D02*
D03*
X261425Y606425D02*
D03*
X219000Y582000D02*
D03*
X226000Y643000D02*
D03*
X213000Y640000D02*
D03*
Y578000D02*
D03*
X226000Y500000D02*
D03*
X239000Y452000D02*
D03*
X461000Y651000D02*
D03*
Y668000D02*
D03*
X462000Y637000D02*
D03*
X386000Y648000D02*
D03*
X402000Y184000D02*
D03*
X346000Y170000D02*
D03*
M02*
