%FSLAX25Y25*%
%MOIN*%
G70*
G01*
G75*
G04 Layer_Color=32896*
%ADD10R,0.03937X0.05118*%
%ADD11R,0.05118X0.03937*%
%ADD12R,0.04331X0.03543*%
%ADD13C,0.00800*%
%ADD14C,0.01200*%
%ADD15C,0.06000*%
%ADD16C,0.08700*%
%ADD17C,0.15700*%
%ADD18C,0.08000*%
%ADD19C,0.05906*%
%ADD20R,0.05906X0.05906*%
%ADD21R,0.06000X0.06000*%
%ADD22R,0.06000X0.06000*%
%ADD23C,0.05000*%
%ADD24C,0.01000*%
%ADD25C,0.00984*%
%ADD26C,0.00787*%
%ADD27C,0.02500*%
%ADD28C,0.00600*%
%ADD29R,0.04737X0.05918*%
%ADD30R,0.05918X0.04737*%
%ADD31R,0.05131X0.04343*%
%ADD32C,0.06800*%
%ADD33C,0.09500*%
%ADD34C,0.16500*%
%ADD35C,0.08800*%
%ADD36C,0.06706*%
%ADD37R,0.06706X0.06706*%
%ADD38R,0.06800X0.06800*%
%ADD39R,0.06800X0.06800*%
%ADD40C,0.05800*%
D24*
X275500Y698250D02*
X275750Y698500D01*
Y769500D01*
X204500Y698250D02*
X275500D01*
X204500D02*
Y769500D01*
X275750D01*
X275500Y408250D02*
X275750Y408500D01*
Y479500D01*
X204500Y408250D02*
X275500D01*
X204500D02*
Y479500D01*
X275750D01*
X275500Y335750D02*
X275750Y336000D01*
Y407000D01*
X204500Y335750D02*
X275500D01*
X204500D02*
Y407000D01*
X275750D01*
X275500Y625750D02*
X275750Y626000D01*
Y697000D01*
X204500Y625750D02*
X275500D01*
X204500D02*
Y697000D01*
X275750D01*
X275500Y553250D02*
X275750Y553500D01*
Y624500D01*
X204500Y553250D02*
X275500D01*
X204500D02*
Y624500D01*
X275750D01*
X275500Y480750D02*
X275750Y481000D01*
Y552000D01*
X204500Y480750D02*
X275500D01*
X204500D02*
Y552000D01*
X275750D01*
X222501Y722498D02*
X223501Y723498D01*
X225500D01*
X226500Y722498D01*
Y721499D01*
X225500Y720499D01*
X223501D01*
X222501Y719499D01*
Y718500D01*
X223501Y717500D01*
X225500D01*
X226500Y718500D01*
X220502Y723498D02*
Y717500D01*
X218503Y719499D01*
X216503Y717500D01*
Y723498D01*
X214504Y717500D02*
X212505D01*
X213504D01*
Y723498D01*
X214504Y722498D01*
X271201Y705498D02*
X272201Y706498D01*
X274200D01*
X275200Y705498D01*
Y704499D01*
X274200Y703499D01*
X272201D01*
X271201Y702499D01*
Y701500D01*
X272201Y700500D01*
X274200D01*
X275200Y701500D01*
X269202Y706498D02*
Y700500D01*
X267203Y702499D01*
X265203Y700500D01*
Y706498D01*
X259205Y700500D02*
X263204D01*
X259205Y704499D01*
Y705498D01*
X260205Y706498D01*
X262204D01*
X263204Y705498D01*
X271201Y632998D02*
X272201Y633998D01*
X274200D01*
X275200Y632998D01*
Y631999D01*
X274200Y630999D01*
X272201D01*
X271201Y629999D01*
Y629000D01*
X272201Y628000D01*
X274200D01*
X275200Y629000D01*
X269202Y633998D02*
Y628000D01*
X267203Y629999D01*
X265203Y628000D01*
Y633998D01*
X263204Y632998D02*
X262204Y633998D01*
X260205D01*
X259205Y632998D01*
Y631999D01*
X260205Y630999D01*
X261205D01*
X260205D01*
X259205Y629999D01*
Y629000D01*
X260205Y628000D01*
X262204D01*
X263204Y629000D01*
X271201Y560498D02*
X272201Y561498D01*
X274200D01*
X275200Y560498D01*
Y559499D01*
X274200Y558499D01*
X272201D01*
X271201Y557499D01*
Y556500D01*
X272201Y555500D01*
X274200D01*
X275200Y556500D01*
X269202Y561498D02*
Y555500D01*
X267203Y557499D01*
X265203Y555500D01*
Y561498D01*
X260205Y555500D02*
Y561498D01*
X263204Y558499D01*
X259205D01*
X248501Y473498D02*
X249501Y474498D01*
X251500D01*
X252500Y473498D01*
Y472499D01*
X251500Y471499D01*
X249501D01*
X248501Y470499D01*
Y469500D01*
X249501Y468500D01*
X251500D01*
X252500Y469500D01*
X246502Y474498D02*
Y468500D01*
X244503Y470499D01*
X242503Y468500D01*
Y474498D01*
X236505D02*
X240504D01*
Y471499D01*
X238505Y472499D01*
X237505D01*
X236505Y471499D01*
Y469500D01*
X237505Y468500D01*
X239504D01*
X240504Y469500D01*
X244501Y403498D02*
X245501Y404498D01*
X247500D01*
X248500Y403498D01*
Y402499D01*
X247500Y401499D01*
X245501D01*
X244501Y400499D01*
Y399500D01*
X245501Y398500D01*
X247500D01*
X248500Y399500D01*
X242502Y404498D02*
Y398500D01*
X240503Y400499D01*
X238503Y398500D01*
Y404498D01*
X232505D02*
X234505Y403498D01*
X236504Y401499D01*
Y399500D01*
X235504Y398500D01*
X233505D01*
X232505Y399500D01*
Y400499D01*
X233505Y401499D01*
X236504D01*
X263250Y746000D02*
X261251D01*
X262250D01*
Y751998D01*
X263250Y750998D01*
X248750Y708998D02*
Y703000D01*
X244751D01*
X238753Y708998D02*
X242752D01*
Y703000D01*
X238753D01*
X242752Y705999D02*
X240753D01*
X236754Y708998D02*
Y703000D01*
X233755D01*
X232755Y704000D01*
Y707998D01*
X233755Y708998D01*
X236754D01*
X263250Y456000D02*
X261251D01*
X262250D01*
Y461998D01*
X263250Y460998D01*
X238000Y417998D02*
Y412000D01*
X234001D01*
X228003Y417998D02*
X232002D01*
Y412000D01*
X228003D01*
X232002Y414999D02*
X230003D01*
X226004Y417998D02*
Y412000D01*
X223005D01*
X222005Y413000D01*
Y416998D01*
X223005Y417998D01*
X226004D01*
X260000Y386500D02*
X258001D01*
X259000D01*
Y392498D01*
X260000Y391498D01*
X248750Y346498D02*
Y340500D01*
X244751D01*
X238753Y346498D02*
X242752D01*
Y340500D01*
X238753D01*
X242752Y343499D02*
X240753D01*
X236754Y346498D02*
Y340500D01*
X233755D01*
X232755Y341500D01*
Y345498D01*
X233755Y346498D01*
X236754D01*
X263250Y673500D02*
X261251D01*
X262250D01*
Y679498D01*
X263250Y678498D01*
X248750Y636498D02*
Y630500D01*
X244751D01*
X238753Y636498D02*
X242752D01*
Y630500D01*
X238753D01*
X242752Y633499D02*
X240753D01*
X236754Y636498D02*
Y630500D01*
X233755D01*
X232755Y631500D01*
Y635498D01*
X233755Y636498D01*
X236754D01*
X263250Y601000D02*
X261251D01*
X262250D01*
Y606998D01*
X263250Y605998D01*
X248750Y563998D02*
Y558000D01*
X244751D01*
X238753Y563998D02*
X242752D01*
Y558000D01*
X238753D01*
X242752Y560999D02*
X240753D01*
X236754Y563998D02*
Y558000D01*
X233755D01*
X232755Y559000D01*
Y562998D01*
X233755Y563998D01*
X236754D01*
X263250Y528500D02*
X261251D01*
X262250D01*
Y534498D01*
X263250Y533498D01*
X248750Y491498D02*
Y485500D01*
X244751D01*
X238753Y491498D02*
X242752D01*
Y485500D01*
X238753D01*
X242752Y488499D02*
X240753D01*
X236754Y491498D02*
Y485500D01*
X233755D01*
X232755Y486500D01*
Y490498D01*
X233755Y491498D01*
X236754D01*
M02*
