%FSLAX25Y25*%
%MOIN*%
G70*
G01*
G75*
G04 Layer_Physical_Order=2*
G04 Layer_Color=16711680*
%ADD10R,0.03937X0.05118*%
%ADD11R,0.05118X0.03937*%
%ADD12R,0.04331X0.03543*%
%ADD13C,0.00800*%
%ADD14C,0.01200*%
%ADD15C,0.06000*%
%ADD16C,0.08700*%
%ADD17C,0.15700*%
%ADD18C,0.08000*%
%ADD19C,0.05906*%
%ADD20R,0.05906X0.05906*%
%ADD21R,0.06000X0.06000*%
%ADD22R,0.06000X0.06000*%
%ADD23C,0.05000*%
%ADD24C,0.01000*%
D13*
X235150Y482383D02*
X235450Y482683D01*
X235150Y479318D02*
Y482383D01*
Y479318D02*
X235450Y479018D01*
Y382000D02*
Y423800D01*
Y379499D02*
Y382000D01*
X270000Y460000D02*
X275000D01*
X275500Y459500D02*
Y487364D01*
X275000Y460000D02*
X275500Y459500D01*
X210000Y530000D02*
X216000Y536000D01*
Y544000D01*
X205847Y554153D02*
X216000Y544000D01*
X205847Y554153D02*
Y748347D01*
X206500Y749000D01*
X267400Y522600D02*
X270000Y520000D01*
X267400Y522600D02*
Y526727D01*
X265847Y528280D02*
X267400Y526727D01*
X265847Y528280D02*
Y543450D01*
X266449Y544051D01*
Y544891D01*
X264247Y527617D02*
Y585148D01*
X265800Y586701D01*
X266400Y544940D02*
X266449Y544891D01*
X268000Y593624D02*
Y593837D01*
Y593624D02*
X269000Y592624D01*
Y585376D02*
Y592624D01*
X268000Y584376D02*
X269000Y585376D01*
X268000Y545603D02*
Y584376D01*
X266400Y544940D02*
Y585038D01*
X267400Y586038D01*
Y591962D01*
X266400Y592962D02*
X267400Y591962D01*
X266400Y592962D02*
Y594500D01*
X265800Y586701D02*
Y591299D01*
X264800Y592299D02*
X265800Y591299D01*
X264800Y592299D02*
Y595163D01*
X265800Y596163D01*
Y600442D01*
X266400Y594500D02*
X267400Y595500D01*
Y601105D01*
X268000Y593837D02*
X269000Y594837D01*
X268000Y545603D02*
X272000D01*
X274153Y543450D01*
X269000Y594837D02*
Y601767D01*
X265800Y474200D02*
Y526064D01*
Y474200D02*
X270000Y470000D01*
X269000Y606233D02*
Y665124D01*
X267400Y606895D02*
Y664462D01*
X265100Y601142D02*
X265800Y600442D01*
X265100Y601142D02*
Y606858D01*
X265800Y607558D01*
Y655876D01*
X266700Y601805D02*
X267400Y601105D01*
X266700Y601805D02*
Y606195D01*
X267400Y606895D01*
X268300Y605533D02*
X269000Y606233D01*
X268300Y602467D02*
Y605533D01*
Y602467D02*
X269000Y601767D01*
X260450Y669149D02*
Y673654D01*
X264800Y656876D02*
X265800Y655876D01*
X260450Y669149D02*
X265800Y663799D01*
X266400Y665462D02*
Y668400D01*
X268000Y666124D02*
Y667737D01*
Y666124D02*
X269000Y665124D01*
X266400Y665462D02*
X267400Y664462D01*
X264800Y656876D02*
Y658201D01*
X265800Y659201D01*
Y663799D01*
X266400Y668400D02*
X269000Y671000D01*
Y674000D01*
X264300Y677700D02*
X265800Y679200D01*
X261467Y677700D02*
X264300D01*
X268000Y680263D02*
X273600Y674663D01*
X268000Y667737D02*
X273600Y673337D01*
X268000Y680263D02*
Y751000D01*
X269000Y674000D02*
X272000D01*
X273600Y673337D02*
Y674663D01*
X259300Y674804D02*
Y675533D01*
Y674804D02*
X260450Y673654D01*
X259700Y678195D02*
Y697800D01*
X257700Y676195D02*
X259700Y678195D01*
X257700Y673950D02*
Y676195D01*
X255250Y671500D02*
X257700Y673950D01*
X259300Y675533D02*
X261467Y677700D01*
X271500Y674500D02*
X272000Y674000D01*
X264000Y681000D02*
X265800Y679200D01*
X275753Y487617D02*
Y600247D01*
X274153Y488280D02*
Y543450D01*
X275500Y487364D02*
X275753Y487617D01*
X272000Y604000D02*
X275753Y600247D01*
X268000Y751000D02*
X270000Y753000D01*
X225948Y599948D02*
X227500Y601500D01*
X225948Y586849D02*
Y599948D01*
X225050Y585951D02*
X225948Y586849D01*
X225050Y533896D02*
Y585951D01*
Y533896D02*
X225500Y533446D01*
X227500Y601500D02*
Y602000D01*
X225500Y523000D02*
Y533446D01*
X229600Y520911D02*
X235450Y526761D01*
X229600Y512089D02*
Y520911D01*
X231200Y520249D02*
X237300Y526349D01*
X231200Y512751D02*
Y520249D01*
X240500Y529049D02*
X249300Y520249D01*
Y512751D02*
Y520249D01*
X240500Y503951D02*
X249300Y512751D01*
X247000Y524811D02*
Y547500D01*
Y524811D02*
X250900Y520911D01*
Y491900D02*
Y520911D01*
X235450Y526761D02*
Y568800D01*
X231200Y512751D02*
X236850Y507101D01*
X249500Y490500D02*
X250900Y491900D01*
X270000Y480000D02*
X273900Y483900D01*
Y488027D01*
X274153Y488280D01*
X264247Y527617D02*
X265800Y526064D01*
X262200Y533450D02*
Y553497D01*
X254700Y525950D02*
X262200Y533450D01*
X254700Y454550D02*
Y525950D01*
X241050Y494760D02*
Y497217D01*
X237065Y576500D02*
X237300Y576265D01*
Y572890D02*
Y576265D01*
X241050Y566598D02*
Y574950D01*
X241000Y575000D02*
X241050Y574950D01*
X237300Y565110D02*
X239450Y567260D01*
X240500Y566048D02*
X241050Y566598D01*
X240500Y529049D02*
Y566048D01*
X237300Y572890D02*
X239450Y570740D01*
Y567260D02*
Y570740D01*
X237300Y526349D02*
Y565110D01*
X236850Y504583D02*
Y507101D01*
X229600Y512089D02*
X235250Y506439D01*
Y505245D02*
Y506439D01*
X235200Y496550D02*
X235250Y496500D01*
X235200Y496550D02*
Y505195D01*
X236800Y501467D02*
X241050Y497217D01*
X235200Y505195D02*
X235250Y505245D01*
X236800Y501467D02*
Y504533D01*
X242550Y456550D02*
Y493260D01*
X241050Y494760D02*
X242550Y493260D01*
X240500Y503000D02*
Y503951D01*
X236500Y434500D02*
X237500D01*
X231200Y439800D02*
X236500Y434500D01*
X231200Y439800D02*
Y447749D01*
X229600Y448411D02*
X235450Y454261D01*
X229600Y429650D02*
X235450Y423800D01*
X229600Y429650D02*
Y448411D01*
X231200Y447749D02*
X237050Y453599D01*
Y479050D01*
X235450Y454261D02*
Y479018D01*
Y482683D02*
Y496300D01*
X235250Y496500D02*
X235450Y496300D01*
X249500Y420000D02*
Y490500D01*
X221000Y396000D02*
Y406500D01*
X263500Y413500D02*
X270000Y420000D01*
X263500Y384000D02*
Y413500D01*
X243000Y416500D02*
X246000D01*
X249500Y420000D01*
X246500Y549000D02*
Y562000D01*
X249450Y564950D01*
Y600554D01*
X251000Y602104D01*
Y637500D01*
X253100Y639600D02*
Y661449D01*
X251000Y637500D02*
X253100Y639600D01*
X246000Y668549D02*
X253100Y661449D01*
X246000Y668549D02*
Y693500D01*
X210000Y330000D02*
X216500Y323500D01*
Y315763D02*
Y323500D01*
X251300Y740050D02*
X255250Y744000D01*
X251300Y706200D02*
Y740050D01*
Y706200D02*
X259700Y697800D01*
X254700Y627997D02*
Y670950D01*
Y627997D02*
X260700Y621997D01*
Y610700D02*
Y621997D01*
X255250Y605250D02*
X260700Y610700D01*
X255250Y599000D02*
Y605250D01*
X254700Y598450D02*
X255250Y599000D01*
X254700Y560997D02*
Y598450D01*
Y560997D02*
X262200Y553497D01*
X254700Y454550D02*
X255250Y454000D01*
X254700Y453450D02*
X255250Y454000D01*
X254700Y382050D02*
X255250Y381500D01*
X254700Y670950D02*
X255250Y671500D01*
X235250Y714000D02*
X235500Y713750D01*
X231200Y665249D02*
X235500Y669549D01*
X231200Y657751D02*
Y665249D01*
Y657751D02*
X235250Y653701D01*
Y641500D02*
Y653701D01*
Y641500D02*
X235450Y641300D01*
Y596999D02*
Y641300D01*
X231200Y592749D02*
X235450Y596999D01*
X231200Y573050D02*
Y592749D01*
Y375249D02*
X235450Y379499D01*
X231200Y355550D02*
Y375249D01*
Y355550D02*
X235250Y351500D01*
X235500Y669549D02*
Y713750D01*
X231200Y573050D02*
X235450Y568800D01*
X210000Y340000D02*
X218500Y331500D01*
Y318500D02*
Y331500D01*
X263000Y333000D02*
X270000Y340000D01*
X260500Y340500D02*
X270000Y350000D01*
X210000Y320000D02*
X218400Y311600D01*
X216500Y315763D02*
X219063Y313200D01*
X218500Y318500D02*
X222200Y314800D01*
X221000Y319000D02*
X223600Y316400D01*
X221000Y319000D02*
Y339000D01*
X210000Y350000D02*
X221000Y339000D01*
X270000Y359000D02*
Y360000D01*
Y317716D02*
Y320000D01*
X261184Y308900D02*
X270000Y317716D01*
X250779Y313200D02*
X253479Y310500D01*
X218400Y311600D02*
X250116D01*
X252816Y308900D01*
X249454Y310000D02*
X252154Y307300D01*
X219063Y313200D02*
X250779D01*
X210000Y310000D02*
X249454D01*
X222200Y314800D02*
X251442D01*
X254142Y312100D01*
X223600Y316400D02*
X252105D01*
X254805Y313700D01*
X252816Y308900D02*
X261184D01*
X252767Y318000D02*
X255467Y315300D01*
X222600Y322900D02*
X227500Y318000D01*
X222600Y322900D02*
Y339663D01*
X222000Y340263D02*
X222600Y339663D01*
X222000Y340263D02*
Y342000D01*
X215000Y349000D02*
X222000Y342000D01*
X215000Y349000D02*
Y355000D01*
X210000Y360000D02*
X215000Y355000D01*
X258900Y347900D02*
X270000Y359000D01*
X227500Y318000D02*
X252767D01*
X263000Y329026D02*
Y333000D01*
X252154Y307300D02*
X261846D01*
X264546Y310000D01*
X270000D01*
X253479Y310500D02*
X260521D01*
X265847Y315826D01*
Y325847D01*
X270000Y330000D01*
X254142Y312100D02*
X259858D01*
X264247Y316489D01*
Y323011D01*
X262400Y324858D02*
X264247Y323011D01*
X262400Y324858D02*
Y328426D01*
X263000Y329026D01*
X254805Y313700D02*
X259195D01*
X262647Y317152D01*
Y322348D01*
X260500Y324495D02*
X262647Y322348D01*
X260500Y324495D02*
Y340500D01*
X255467Y315300D02*
X258533D01*
X260700Y317467D01*
Y321338D01*
X261047Y321685D01*
X258900Y323833D02*
X261047Y321685D01*
X258900Y323833D02*
Y347900D01*
X256000Y320000D02*
X257000Y319000D01*
X229500Y320000D02*
X256000D01*
X224500Y325000D02*
X229500Y320000D01*
X224500Y325000D02*
Y342000D01*
X217000Y349500D02*
X224500Y342000D01*
X210000Y369000D02*
X217000Y362000D01*
X210000Y369000D02*
Y370000D01*
X217000Y349500D02*
Y362000D01*
X257000Y319000D02*
Y349000D01*
X265500Y357500D01*
X250500Y325000D02*
X255000Y329500D01*
X228500Y325000D02*
X250500D01*
X226100Y327400D02*
X228500Y325000D01*
X226100Y327400D02*
Y343400D01*
X221500Y348000D02*
X226100Y343400D01*
X220763Y348000D02*
X221500D01*
X219000Y349763D02*
X220763Y348000D01*
X219000Y349763D02*
Y364000D01*
X210000Y380000D02*
X214000Y376000D01*
X248000Y333500D02*
X251500D01*
X253400Y335400D01*
Y359400D01*
X255000Y329500D02*
Y357505D01*
X253100Y363900D02*
X253500Y363500D01*
X254700Y382050D02*
Y453450D01*
X253100Y363900D02*
Y379350D01*
X255250Y381500D01*
X265500Y357500D02*
Y365500D01*
X270000Y370000D01*
X255000Y357505D02*
X265800Y368305D01*
Y375800D01*
X270000Y380000D01*
X246000Y384000D02*
X249800Y380200D01*
Y361967D02*
Y380200D01*
Y361967D02*
X252367Y359400D01*
X253400D01*
X214000Y372026D02*
X214153Y371873D01*
X214000Y372026D02*
Y376000D01*
X214153Y368847D02*
Y371873D01*
Y368847D02*
X219000Y364000D01*
X210000Y389599D02*
Y390000D01*
Y389599D02*
X227700Y371899D01*
Y336300D02*
Y371899D01*
Y336300D02*
X230500Y333500D01*
X248000D01*
D14*
X234950Y382500D02*
X235450Y382000D01*
X231613Y382500D02*
X234950D01*
X225713Y388400D02*
X231613Y382500D01*
X221600Y388400D02*
X225713D01*
X210000Y400000D02*
X221600Y388400D01*
D15*
X245250Y714000D02*
D03*
X235250D02*
D03*
X245250Y424000D02*
D03*
X235250D02*
D03*
X245250Y351500D02*
D03*
X235250D02*
D03*
X222000Y384000D02*
D03*
Y456000D02*
D03*
X218000Y550000D02*
D03*
X216500Y618500D02*
D03*
X215500Y693000D02*
D03*
X213000Y764000D02*
D03*
X245250Y641500D02*
D03*
X235250D02*
D03*
X245250Y569000D02*
D03*
X235250D02*
D03*
X245250Y496500D02*
D03*
X235250D02*
D03*
D16*
X220250Y734000D02*
D03*
X260250D02*
D03*
X220250Y444000D02*
D03*
X260250D02*
D03*
X220250Y371500D02*
D03*
X260250D02*
D03*
X220250Y661500D02*
D03*
X260250D02*
D03*
X220250Y589000D02*
D03*
X260250D02*
D03*
X220250Y516500D02*
D03*
X260250D02*
D03*
D17*
X240250Y734000D02*
D03*
Y444000D02*
D03*
Y371500D02*
D03*
Y661500D02*
D03*
Y589000D02*
D03*
Y516500D02*
D03*
D18*
X230250Y754000D02*
D03*
X255250Y744000D02*
D03*
X230250Y464000D02*
D03*
X255250Y454000D02*
D03*
X230250Y391500D02*
D03*
X255250Y381500D02*
D03*
X230250Y681500D02*
D03*
X255250Y671500D02*
D03*
X230250Y609000D02*
D03*
X255250Y599000D02*
D03*
X230250Y536500D02*
D03*
X255250Y526500D02*
D03*
D19*
X270000Y410000D02*
D03*
Y400000D02*
D03*
Y390000D02*
D03*
Y380000D02*
D03*
Y370000D02*
D03*
Y360000D02*
D03*
Y350000D02*
D03*
Y340000D02*
D03*
Y330000D02*
D03*
Y320000D02*
D03*
Y310000D02*
D03*
X210000D02*
D03*
Y320000D02*
D03*
Y330000D02*
D03*
Y340000D02*
D03*
Y350000D02*
D03*
Y360000D02*
D03*
Y370000D02*
D03*
Y380000D02*
D03*
Y390000D02*
D03*
Y400000D02*
D03*
Y410000D02*
D03*
X270000Y430000D02*
D03*
Y440000D02*
D03*
Y450000D02*
D03*
Y460000D02*
D03*
Y470000D02*
D03*
Y480000D02*
D03*
Y490000D02*
D03*
Y500000D02*
D03*
Y510000D02*
D03*
Y520000D02*
D03*
Y530000D02*
D03*
X210000Y430000D02*
D03*
Y440000D02*
D03*
Y450000D02*
D03*
Y460000D02*
D03*
Y470000D02*
D03*
Y480000D02*
D03*
Y490000D02*
D03*
Y500000D02*
D03*
Y510000D02*
D03*
Y520000D02*
D03*
Y530000D02*
D03*
D20*
X270000Y420000D02*
D03*
X210000D02*
D03*
X270000Y540000D02*
D03*
X210000D02*
D03*
D21*
X222000Y424000D02*
D03*
Y496000D02*
D03*
D22*
X258000Y550000D02*
D03*
X256500Y618500D02*
D03*
X255500Y693000D02*
D03*
X253000Y764000D02*
D03*
D23*
X206500Y749000D02*
D03*
X269000Y674000D02*
D03*
X264000Y681000D02*
D03*
X228000Y601500D02*
D03*
X225500Y523000D02*
D03*
X272000Y604000D02*
D03*
X235000Y578000D02*
D03*
X241000Y575000D02*
D03*
X242000Y456000D02*
D03*
X240500Y503000D02*
D03*
X239000Y432500D02*
D03*
X238850Y480850D02*
D03*
X270000Y753000D02*
D03*
X221000Y396000D02*
D03*
Y406500D02*
D03*
X249500Y490500D02*
D03*
X263500Y384000D02*
D03*
X243000Y416500D02*
D03*
X247000Y547500D02*
D03*
X251000Y637500D02*
D03*
X246000Y693500D02*
D03*
X253500Y363500D02*
D03*
X257000Y319000D02*
D03*
X250500Y325000D02*
D03*
X248000Y333500D02*
D03*
X246000Y384000D02*
D03*
D24*
X204300Y415700D02*
X210000Y410000D01*
X204300Y415700D02*
Y530314D01*
X210000Y536014D01*
Y540000D01*
M02*
