%FSLAX25Y25*%
%MOIN*%
G70*
G01*
G75*
G04 Layer_Color=8388736*
%ADD10R,0.03937X0.05118*%
%ADD11R,0.05118X0.03937*%
%ADD12R,0.04331X0.03543*%
%ADD13C,0.00800*%
%ADD14C,0.01200*%
%ADD15C,0.06000*%
%ADD16C,0.08700*%
%ADD17C,0.15700*%
%ADD18C,0.08000*%
%ADD19C,0.05906*%
%ADD20R,0.05906X0.05906*%
%ADD21R,0.06000X0.06000*%
%ADD22R,0.06000X0.06000*%
%ADD23C,0.05000*%
%ADD24C,0.01000*%
%ADD25C,0.00984*%
%ADD26C,0.00787*%
%ADD27C,0.02500*%
%ADD28C,0.00600*%
%ADD29R,0.04737X0.05918*%
%ADD30R,0.05918X0.04737*%
%ADD31R,0.05131X0.04343*%
%ADD32C,0.06800*%
%ADD33C,0.09500*%
%ADD34C,0.16500*%
%ADD35C,0.08800*%
%ADD36C,0.06706*%
%ADD37R,0.06706X0.06706*%
%ADD38R,0.06800X0.06800*%
%ADD39R,0.06800X0.06800*%
%ADD40C,0.05800*%
D29*
X254850Y424000D02*
D03*
X261150D02*
D03*
X249150Y398000D02*
D03*
X242850D02*
D03*
X225150Y320000D02*
D03*
X218850D02*
D03*
X232850Y330000D02*
D03*
X239150D02*
D03*
X225150D02*
D03*
X218850D02*
D03*
X225150Y340000D02*
D03*
X218850D02*
D03*
X225150Y350000D02*
D03*
X218850D02*
D03*
X225150Y360000D02*
D03*
X218850D02*
D03*
X232850Y320000D02*
D03*
X239150D02*
D03*
X232850Y310000D02*
D03*
X239150D02*
D03*
X225150D02*
D03*
X218850D02*
D03*
X249150Y390000D02*
D03*
X242850D02*
D03*
X240150Y487500D02*
D03*
X233850D02*
D03*
X246850Y504000D02*
D03*
X253150D02*
D03*
X248850Y650000D02*
D03*
X255150D02*
D03*
X232000Y432000D02*
D03*
X225701D02*
D03*
D30*
X260000Y411150D02*
D03*
Y404850D02*
D03*
X254000Y350850D02*
D03*
Y357150D02*
D03*
X260000Y399150D02*
D03*
Y392850D02*
D03*
X236000Y400850D02*
D03*
Y407150D02*
D03*
X230000Y474850D02*
D03*
Y481150D02*
D03*
X258000Y563150D02*
D03*
Y556850D02*
D03*
X240000Y561150D02*
D03*
Y554850D02*
D03*
X272000Y611850D02*
D03*
Y618150D02*
D03*
X264000Y611850D02*
D03*
Y618150D02*
D03*
X272000Y686850D02*
D03*
Y693150D02*
D03*
X264000Y686850D02*
D03*
Y693150D02*
D03*
X246000Y707150D02*
D03*
Y700850D02*
D03*
X270000Y758850D02*
D03*
Y765150D02*
D03*
X261500Y758850D02*
D03*
Y765150D02*
D03*
X228000Y413150D02*
D03*
Y406850D02*
D03*
X250000Y563150D02*
D03*
Y556850D02*
D03*
D31*
X242709Y409240D02*
D03*
X252000Y412980D02*
D03*
Y405500D02*
D03*
D32*
X245250Y714000D02*
D03*
X235250D02*
D03*
X245250Y424000D02*
D03*
X235250D02*
D03*
X245250Y351500D02*
D03*
X235250D02*
D03*
X222000Y384000D02*
D03*
Y456000D02*
D03*
X218000Y550000D02*
D03*
X216500Y618500D02*
D03*
X215500Y693000D02*
D03*
X213000Y764000D02*
D03*
X245250Y641500D02*
D03*
X235250D02*
D03*
X245250Y569000D02*
D03*
X235250D02*
D03*
X245250Y496500D02*
D03*
X235250D02*
D03*
D33*
X220250Y734000D02*
D03*
X260250D02*
D03*
X220250Y444000D02*
D03*
X260250D02*
D03*
X220250Y371500D02*
D03*
X260250D02*
D03*
X220250Y661500D02*
D03*
X260250D02*
D03*
X220250Y589000D02*
D03*
X260250D02*
D03*
X220250Y516500D02*
D03*
X260250D02*
D03*
D34*
X240250Y734000D02*
D03*
Y444000D02*
D03*
Y371500D02*
D03*
Y661500D02*
D03*
Y589000D02*
D03*
Y516500D02*
D03*
D35*
X230250Y754000D02*
D03*
X255250Y744000D02*
D03*
X230250Y464000D02*
D03*
X255250Y454000D02*
D03*
X230250Y391500D02*
D03*
X255250Y381500D02*
D03*
X230250Y681500D02*
D03*
X255250Y671500D02*
D03*
X230250Y609000D02*
D03*
X255250Y599000D02*
D03*
X230250Y536500D02*
D03*
X255250Y526500D02*
D03*
D36*
X270000Y410000D02*
D03*
Y400000D02*
D03*
Y390000D02*
D03*
Y380000D02*
D03*
Y370000D02*
D03*
Y360000D02*
D03*
Y350000D02*
D03*
Y340000D02*
D03*
Y330000D02*
D03*
Y320000D02*
D03*
Y310000D02*
D03*
X210000D02*
D03*
Y320000D02*
D03*
Y330000D02*
D03*
Y340000D02*
D03*
Y350000D02*
D03*
Y360000D02*
D03*
Y370000D02*
D03*
Y380000D02*
D03*
Y390000D02*
D03*
Y400000D02*
D03*
Y410000D02*
D03*
X270000Y430000D02*
D03*
Y440000D02*
D03*
Y450000D02*
D03*
Y460000D02*
D03*
Y470000D02*
D03*
Y480000D02*
D03*
Y490000D02*
D03*
Y500000D02*
D03*
Y510000D02*
D03*
Y520000D02*
D03*
Y530000D02*
D03*
X210000Y430000D02*
D03*
Y440000D02*
D03*
Y450000D02*
D03*
Y460000D02*
D03*
Y470000D02*
D03*
Y480000D02*
D03*
Y490000D02*
D03*
Y500000D02*
D03*
Y510000D02*
D03*
Y520000D02*
D03*
Y530000D02*
D03*
D37*
X270000Y420000D02*
D03*
X210000D02*
D03*
X270000Y540000D02*
D03*
X210000D02*
D03*
D38*
X222000Y424000D02*
D03*
Y496000D02*
D03*
D39*
X258000Y550000D02*
D03*
X256500Y618500D02*
D03*
X255500Y693000D02*
D03*
X253000Y764000D02*
D03*
D40*
X206500Y749000D02*
D03*
X269000Y674000D02*
D03*
X264000Y681000D02*
D03*
X228000Y601500D02*
D03*
X225500Y523000D02*
D03*
X272000Y604000D02*
D03*
X235000Y578000D02*
D03*
X241000Y575000D02*
D03*
X242000Y456000D02*
D03*
X240500Y503000D02*
D03*
X239000Y432500D02*
D03*
X238850Y480850D02*
D03*
X270000Y753000D02*
D03*
X221000Y396000D02*
D03*
Y406500D02*
D03*
X249500Y490500D02*
D03*
X263500Y384000D02*
D03*
X243000Y416500D02*
D03*
X247000Y547500D02*
D03*
X251000Y637500D02*
D03*
X246000Y693500D02*
D03*
X253500Y363500D02*
D03*
X257000Y319000D02*
D03*
X250500Y325000D02*
D03*
X248000Y333500D02*
D03*
X246000Y384000D02*
D03*
M02*
