%FSLAX25Y25*%
%MOIN*%
G70*
G01*
G75*
G04 Layer_Physical_Order=1*
G04 Layer_Color=255*
%ADD10R,0.03937X0.05118*%
%ADD11R,0.05118X0.03937*%
%ADD12R,0.04331X0.03543*%
%ADD13C,0.00800*%
%ADD14C,0.01200*%
%ADD15C,0.06000*%
%ADD16C,0.08700*%
%ADD17C,0.15700*%
%ADD18C,0.08000*%
%ADD19C,0.05906*%
%ADD20R,0.05906X0.05906*%
%ADD21R,0.06000X0.06000*%
%ADD22R,0.06000X0.06000*%
%ADD23C,0.05000*%
D10*
X254850Y424000D02*
D03*
X261150D02*
D03*
X249150Y398000D02*
D03*
X242850D02*
D03*
X225150Y320000D02*
D03*
X218850D02*
D03*
X232850Y330000D02*
D03*
X239150D02*
D03*
X225150D02*
D03*
X218850D02*
D03*
X225150Y340000D02*
D03*
X218850D02*
D03*
X225150Y350000D02*
D03*
X218850D02*
D03*
X225150Y360000D02*
D03*
X218850D02*
D03*
X232850Y320000D02*
D03*
X239150D02*
D03*
X232850Y310000D02*
D03*
X239150D02*
D03*
X225150D02*
D03*
X218850D02*
D03*
X249150Y390000D02*
D03*
X242850D02*
D03*
X240150Y487500D02*
D03*
X233850D02*
D03*
X246850Y504000D02*
D03*
X253150D02*
D03*
X248850Y650000D02*
D03*
X255150D02*
D03*
X232000Y432000D02*
D03*
X225701D02*
D03*
D11*
X260000Y411150D02*
D03*
Y404850D02*
D03*
X254000Y350850D02*
D03*
Y357150D02*
D03*
X260000Y399150D02*
D03*
Y392850D02*
D03*
X236000Y400850D02*
D03*
Y407150D02*
D03*
X230000Y474850D02*
D03*
Y481150D02*
D03*
X258000Y563150D02*
D03*
Y556850D02*
D03*
X240000Y561150D02*
D03*
Y554850D02*
D03*
X272000Y611850D02*
D03*
Y618150D02*
D03*
X264000Y611850D02*
D03*
Y618150D02*
D03*
X272000Y686850D02*
D03*
Y693150D02*
D03*
X264000Y686850D02*
D03*
Y693150D02*
D03*
X246000Y707150D02*
D03*
Y700850D02*
D03*
X270000Y758850D02*
D03*
Y765150D02*
D03*
X261500Y758850D02*
D03*
Y765150D02*
D03*
X228000Y413150D02*
D03*
Y406850D02*
D03*
X250000Y563150D02*
D03*
Y556850D02*
D03*
D12*
X242709Y409240D02*
D03*
X252000Y412980D02*
D03*
Y405500D02*
D03*
D13*
X236501Y434950D02*
X239000D01*
X238850Y480850D02*
X240150Y482150D01*
Y487500D01*
X222000Y479500D02*
Y480850D01*
Y479500D02*
X226650Y474850D01*
X230000D01*
Y482450D02*
Y487150D01*
X233500D01*
X222000D02*
X230000D01*
X233500D02*
X233850Y487500D01*
X233056Y471682D02*
X234874Y473500D01*
X225126D02*
X226944Y471682D01*
X222423Y473500D02*
X225126D01*
X234874D02*
X263500D01*
X226944Y471682D02*
X233056D01*
X263500Y473500D02*
X270000Y480000D01*
X215923D02*
X222423Y473500D01*
X247967Y486800D02*
X251033D01*
X245800Y488967D02*
X247967Y486800D01*
X245800Y488967D02*
Y489200D01*
X242700Y492300D02*
X245800Y489200D01*
X233510Y492300D02*
X242700D01*
X206500Y748800D02*
X235450D01*
X240150Y753500D01*
X261000D01*
X261500Y754000D01*
Y758850D01*
X269000Y674000D02*
X272000D01*
Y686850D01*
X228000Y601500D02*
Y602000D01*
X229800Y603800D01*
X225500Y523000D02*
X233951D01*
X218901D02*
X225500D01*
X229800Y603800D02*
X235450D01*
X246549Y523000D02*
X251000D01*
X243999Y525550D02*
X246549Y523000D01*
X236501Y525550D02*
X243999D01*
X233951Y523000D02*
X236501Y525550D01*
X251000Y523000D02*
X254700Y519300D01*
X210000Y514099D02*
X218901Y523000D01*
X235450Y603800D02*
X243500Y611850D01*
X264000D01*
Y681000D02*
Y686850D01*
X272000Y604000D02*
Y611850D01*
X235000Y578000D02*
X235700Y578700D01*
X243752D01*
X251050Y571402D01*
Y570100D02*
Y571402D01*
Y570100D02*
X258000Y563150D01*
X245250Y566250D02*
Y569000D01*
X240000Y561000D02*
X245250Y566250D01*
X240500Y574500D02*
X241000Y575000D01*
X242000Y453050D02*
Y456000D01*
Y453050D02*
X246050D01*
X227252D02*
X242000D01*
X237300Y460800D02*
X258067D01*
X231150Y454650D02*
X237300Y460800D01*
X226590Y454650D02*
X231150D01*
X240500Y503000D02*
Y507450D01*
X243999D01*
X217450D02*
X240500D01*
Y574500D02*
X245690D01*
X249450Y570740D01*
Y563700D02*
Y570740D01*
Y563700D02*
X250000Y563150D01*
X239000Y432500D02*
X241450Y434950D01*
X241500D02*
X264950D01*
X227500Y436500D02*
X235200Y428800D01*
X240533D01*
X241733Y430000D02*
X270000D01*
X240533Y428800D02*
X241733Y430000D01*
X210000Y470000D02*
X270000D01*
Y753000D02*
Y758850D01*
X221000Y396000D02*
X221700Y396700D01*
X235450D01*
X242150Y390000D01*
X242850D01*
X221350Y406850D02*
X228000D01*
X249150Y398000D02*
X254000D01*
X210000Y490000D02*
Y491697D01*
X218803Y500500D01*
X225310D01*
X233510Y492300D01*
X251033Y486800D02*
X254233Y490000D01*
X270000D01*
X210000Y460000D02*
X216600Y453400D01*
X219598Y450200D02*
X224402D01*
X220260Y451800D02*
X223740D01*
X211800D02*
X217998D01*
X219598Y450200D01*
X216600Y453400D02*
X218660D01*
X220260Y451800D01*
X223740D02*
X226590Y454650D01*
X224402Y450200D02*
X227252Y453050D01*
X258067Y460800D02*
X258867Y460000D01*
X270000D01*
X246050Y453050D02*
X252200Y459200D01*
X210000Y450000D02*
X211800Y451800D01*
X252200Y459200D02*
X257404D01*
X266604Y450000D01*
X270000D01*
X264950Y434950D02*
X270000Y440000D01*
X233351Y438100D02*
X236501Y434950D01*
X220000Y436500D02*
X227500D01*
X213500Y430000D02*
X220000Y436500D01*
X210000Y430000D02*
X213500D01*
X222000Y429000D02*
X225000Y432000D01*
X218301Y438100D02*
X233351D01*
X216401Y440000D02*
X218301Y438100D01*
X210000Y440000D02*
X216401D01*
X210000Y480000D02*
X215923D01*
X212850Y490000D02*
X222000Y480850D01*
X210000Y490000D02*
X212850D01*
X268000Y500000D02*
X270000D01*
X259000Y509000D02*
X268000Y500000D01*
X245549Y509000D02*
X259000D01*
X243999Y507450D02*
X245549Y509000D01*
X210900Y500900D02*
X217450Y507450D01*
X263500Y384000D02*
X265800Y381700D01*
Y369201D02*
Y381700D01*
X249500Y490500D02*
X253150Y494150D01*
Y504000D01*
X251000Y637500D02*
X255150Y641650D01*
Y650000D01*
X240000Y554500D02*
X247000Y547500D01*
X240000Y554500D02*
Y554850D01*
X246000Y693500D02*
Y700850D01*
X245250Y707900D02*
X246000Y707150D01*
X245250Y707900D02*
Y714000D01*
X225150Y310000D02*
Y320000D01*
Y330000D01*
Y340000D01*
Y350000D01*
Y360000D01*
Y310000D02*
X232850D01*
X225150Y320000D02*
X232850D01*
X225150Y330000D02*
X232850D01*
X228000Y406850D02*
X235701D01*
X238091Y409240D01*
X242709D01*
X222000Y456000D02*
X222250D01*
X230250Y464000D01*
X222000Y487150D02*
Y496000D01*
X245250Y496500D02*
Y502400D01*
X246850Y504000D01*
X218000Y548750D02*
Y550000D01*
X258000D02*
Y556850D01*
X250000D02*
X258000D01*
X226000Y609000D02*
X230250D01*
X216500Y618500D02*
X226000Y609000D01*
X256500Y618500D02*
X263650D01*
X264000Y618150D01*
X272000D01*
X248850Y645100D02*
Y650000D01*
X245250Y641500D02*
X248850Y645100D01*
X255500Y693000D02*
X263850D01*
X264000Y693150D01*
X272000D01*
X253000Y764000D02*
X260350D01*
X261500Y765150D01*
X270000D01*
X223000Y754000D02*
X230250D01*
X213000Y764000D02*
X223000Y754000D01*
X215500Y693000D02*
X218750D01*
X230250Y681500D01*
X245250Y351500D02*
X253350D01*
X254000Y350850D01*
X222000Y384000D02*
X222750D01*
X230250Y391500D01*
X245250Y424000D02*
X254850D01*
X260000Y399150D02*
Y404850D01*
X254000Y398000D02*
X255150Y399150D01*
X260000D01*
X225150Y360000D02*
X225468Y360318D01*
X242682D02*
X243000Y360000D01*
X247500D01*
X251000Y363500D01*
X253500D01*
X225468Y360318D02*
X242682D01*
X210000Y310000D02*
X218850D01*
X210000Y320000D02*
X218850D01*
X210000Y330000D02*
X218850D01*
X210000Y340000D02*
X218850D01*
X210000Y350000D02*
X218850D01*
X210000Y360000D02*
X218850D01*
X239150Y310000D02*
X249500D01*
X257750Y318250D01*
X239150Y320000D02*
X245500D01*
X250500Y325000D01*
X239150Y330000D02*
X244500D01*
X248000Y333500D01*
X269000Y389000D02*
X270000Y390000D01*
X254732Y389000D02*
X269000D01*
X251232Y385500D02*
X254732Y389000D01*
X248000Y385500D02*
X251232D01*
X246000Y384000D02*
X246500D01*
X248000Y385500D01*
X254000Y357150D02*
Y357401D01*
X265800Y369201D01*
X222000Y424000D02*
Y429000D01*
X218000Y548750D02*
X230250Y536500D01*
X210000Y540000D02*
X218700Y531300D01*
X232404D01*
X241104Y540000D01*
X270000D01*
X210000Y530000D02*
X210300Y529700D01*
X248833D02*
X252433Y533300D01*
X210300Y529700D02*
X248833D01*
X249496Y528100D02*
X253096Y531700D01*
X252433Y533300D02*
X266700D01*
X270000Y530000D01*
X253096Y531700D02*
X257404D01*
X269104Y520000D01*
X270000D01*
X210000D02*
X213638D01*
X210000Y510000D02*
Y514099D01*
X213638Y520000D02*
X221738Y528100D01*
X249496D01*
X254700Y514201D02*
Y519300D01*
Y514201D02*
X257951Y510950D01*
X269050D01*
X270000Y510000D01*
D14*
Y540000D02*
X275600Y534400D01*
Y415600D02*
Y534400D01*
X270000Y410000D02*
X275600Y415600D01*
X236000Y400850D02*
X238850Y398000D01*
X252000Y392850D02*
X260000D01*
X249150Y390000D02*
X252000Y392850D01*
X210000Y500000D02*
X210900Y500900D01*
X228000Y413150D02*
X239650D01*
X243000Y416500D01*
X247800D01*
X250900Y419600D01*
X264750D01*
X265150Y420000D01*
X210000Y400000D02*
X235150D01*
X236000Y400850D01*
X238850Y398000D02*
X242850D01*
X257650Y411150D02*
X260000D01*
X252000Y405500D02*
X257650Y411150D01*
X262850Y392850D02*
X270000Y400000D01*
X260000Y392850D02*
X262850D01*
X252000Y412980D02*
X254520Y415500D01*
X264500D01*
X270000Y410000D01*
X261150Y424000D02*
X265150Y420000D01*
X270000D01*
X210000D02*
X216850Y413150D01*
X228000D01*
D15*
X245250Y714000D02*
D03*
X235250D02*
D03*
X245250Y424000D02*
D03*
X235250D02*
D03*
X245250Y351500D02*
D03*
X235250D02*
D03*
X222000Y384000D02*
D03*
Y456000D02*
D03*
X218000Y550000D02*
D03*
X216500Y618500D02*
D03*
X215500Y693000D02*
D03*
X213000Y764000D02*
D03*
X245250Y641500D02*
D03*
X235250D02*
D03*
X245250Y569000D02*
D03*
X235250D02*
D03*
X245250Y496500D02*
D03*
X235250D02*
D03*
D16*
X220250Y734000D02*
D03*
X260250D02*
D03*
X220250Y444000D02*
D03*
X260250D02*
D03*
X220250Y371500D02*
D03*
X260250D02*
D03*
X220250Y661500D02*
D03*
X260250D02*
D03*
X220250Y589000D02*
D03*
X260250D02*
D03*
X220250Y516500D02*
D03*
X260250D02*
D03*
D17*
X240250Y734000D02*
D03*
Y444000D02*
D03*
Y371500D02*
D03*
Y661500D02*
D03*
Y589000D02*
D03*
Y516500D02*
D03*
D18*
X230250Y754000D02*
D03*
X255250Y744000D02*
D03*
X230250Y464000D02*
D03*
X255250Y454000D02*
D03*
X230250Y391500D02*
D03*
X255250Y381500D02*
D03*
X230250Y681500D02*
D03*
X255250Y671500D02*
D03*
X230250Y609000D02*
D03*
X255250Y599000D02*
D03*
X230250Y536500D02*
D03*
X255250Y526500D02*
D03*
D19*
X270000Y410000D02*
D03*
Y400000D02*
D03*
Y390000D02*
D03*
Y380000D02*
D03*
Y370000D02*
D03*
Y360000D02*
D03*
Y350000D02*
D03*
Y340000D02*
D03*
Y330000D02*
D03*
Y320000D02*
D03*
Y310000D02*
D03*
X210000D02*
D03*
Y320000D02*
D03*
Y330000D02*
D03*
Y340000D02*
D03*
Y350000D02*
D03*
Y360000D02*
D03*
Y370000D02*
D03*
Y380000D02*
D03*
Y390000D02*
D03*
Y400000D02*
D03*
Y410000D02*
D03*
X270000Y430000D02*
D03*
Y440000D02*
D03*
Y450000D02*
D03*
Y460000D02*
D03*
Y470000D02*
D03*
Y480000D02*
D03*
Y490000D02*
D03*
Y500000D02*
D03*
Y510000D02*
D03*
Y520000D02*
D03*
Y530000D02*
D03*
X210000Y430000D02*
D03*
Y440000D02*
D03*
Y450000D02*
D03*
Y460000D02*
D03*
Y470000D02*
D03*
Y480000D02*
D03*
Y490000D02*
D03*
Y500000D02*
D03*
Y510000D02*
D03*
Y520000D02*
D03*
Y530000D02*
D03*
D20*
X270000Y420000D02*
D03*
X210000D02*
D03*
X270000Y540000D02*
D03*
X210000D02*
D03*
D21*
X222000Y424000D02*
D03*
Y496000D02*
D03*
D22*
X258000Y550000D02*
D03*
X256500Y618500D02*
D03*
X255500Y693000D02*
D03*
X253000Y764000D02*
D03*
D23*
X206500Y749000D02*
D03*
X269000Y674000D02*
D03*
X264000Y681000D02*
D03*
X228000Y601500D02*
D03*
X225500Y523000D02*
D03*
X272000Y604000D02*
D03*
X235000Y578000D02*
D03*
X241000Y575000D02*
D03*
X242000Y456000D02*
D03*
X240500Y503000D02*
D03*
X239000Y432500D02*
D03*
X238850Y480850D02*
D03*
X270000Y753000D02*
D03*
X221000Y396000D02*
D03*
Y406500D02*
D03*
X249500Y490500D02*
D03*
X263500Y384000D02*
D03*
X243000Y416500D02*
D03*
X247000Y547500D02*
D03*
X251000Y637500D02*
D03*
X246000Y693500D02*
D03*
X253500Y363500D02*
D03*
X257000Y319000D02*
D03*
X250500Y325000D02*
D03*
X248000Y333500D02*
D03*
X246000Y384000D02*
D03*
M02*
