M48
;Layer_Color=9474304
;FILE_FORMAT=2:5
INCH,LZ
;TYPE=PLATED
T1F00S00C0.02800
T2F00S00C0.03200
T3F00S00C0.03543
T4F00S00C0.03900
T5F00S00C0.05900
T6F00S00C0.06700
;TYPE=NON_PLATED
T7F00S00C0.15700
%
T01
X02505Y0325
X0248Y03335
X0257Y0319
X02535Y03635
X0246Y0384
X02635
X0243Y04165
X0239Y04325
X0242Y0456
X0221Y04065
Y0396
X023885Y048085
X02495Y04905
X02405Y0503
X02255Y0523
X0247Y05475
X0241Y0575
X0235Y0578
X0228Y06015
X0272Y0604
X0251Y06375
X0269Y0674
X0264Y0681
X0246Y06935
X027Y0753
X02065Y0749
T02
X0222Y0384
Y0424
Y0456
Y0496
X0218Y055
X0258
X02565Y06185
X02165
X02155Y0693
X02555
X0253Y0764
X0213
T03
X021Y031
X027
Y032
Y033
Y034
Y035
Y036
Y037
Y038
Y039
Y04
Y041
Y042
Y043
Y044
Y045
Y046
X021
Y045
Y044
Y043
Y042
Y041
Y04
Y039
Y038
Y037
Y036
Y035
Y034
Y033
Y032
Y047
Y048
Y049
Y05
Y051
Y052
Y053
Y054
X027
Y053
Y052
Y051
Y05
Y049
Y048
Y047
T04
X023525Y03515
X024525
Y0424
X023525
Y04965
X024525
Y0569
X023525
Y06415
X024525
Y0714
X023525
T05
X023025Y03915
X025525Y03815
Y0454
X023025Y0464
Y05365
X025525Y05265
Y0599
X023025Y0609
Y06815
X025525Y06715
Y0744
X023025Y0754
T06
X022025Y03715
X026025
Y0444
X022025
Y05165
X026025
Y0589
X022025
Y06615
X026025
Y0734
X022025
T07
X024025Y03715
Y0444
Y05165
Y0589
Y06615
Y0734
M30
